<?xml version="1.0" encoding="utf-8"?>
<!-- Generator: Adobe Illustrator 15.1.0, SVG Export Plug-In . SVG Version: 6.00 Build 0)  -->
<!DOCTYPE svg PUBLIC "-//W3C//DTD SVG 1.1//EN" "http://www.w3.org/Graphics/SVG/1.1/DTD/svg11.dtd">
<svg version="1.1" id="Capa_1" xmlns="http://www.w3.org/2000/svg" xmlns:xlink="http://www.w3.org/1999/xlink" x="0px" y="0px"
	 width="70px" height="70px" viewBox="0 0 70 70" enable-background="new 0 0 70 70" xml:space="preserve">
<g>
	<path fill-rule="evenodd" clip-rule="evenodd" fill="#BC7800" d="M28.846,16.542L16.816,34.44
		c-2.705-1.939-15.4-15.363-5.141-30.627l0.637-0.947l1.045-0.576c1.668-0.918,5.006-1.27,7.168-0.258
		c-3.152,5.117-1.836,7.387,1.627,9.385l7.305,4.219L28.846,16.542L28.846,16.542z M14.287,8.981L14.287,8.981
		c0.58,2.334,2.197,4.396,4.801,5.898l4.855,2.805l-6.762,10.061C12.408,21.477,11.416,15.52,14.287,8.981L14.287,8.981z"/>
	<path fill-rule="evenodd" clip-rule="evenodd" fill="#BC7800" d="M47.007,27.027l-9.486,19.367
		c3.033,1.373,21.006,5.656,29.096-10.863l0.502-1.023l-0.025-1.193c-0.037-1.902-1.403-4.971-3.359-6.336
		c-2.854,5.289-5.479,5.283-8.941,3.283l-7.305-4.217L47.007,27.027L47.007,27.027z M60.835,35.855L60.835,35.855
		c-2.311,0.664-4.906,0.295-7.51-1.209l-4.855-2.803L43.138,42.73C50.952,43.729,56.606,41.611,60.835,35.855L60.835,35.855z"/>
	<path fill-rule="evenodd" clip-rule="evenodd" fill="#CC9200" d="M28.846,16.542L16.816,34.44
		c-2.705-1.939-15.4-15.363-5.141-30.627l0.637-0.947c1.709-0.531,4.121-0.723,6.371,0.33c-1.996,3.496-1.277,6.742,2.328,8.822
		L28.846,16.542L28.846,16.542z M23.943,17.684l-4.855-2.805c-3.51-2.025-5.225-5.066-5.027-8.416
		c-3.188,5.258-3.629,10.773-1.357,16.385c0.877,2.166,2.117,4.232,3.588,6.077c0.018,0.021,0.033,0.044,0.053,0.066L23.943,17.684
		L23.943,17.684z"/>
	<path fill-rule="evenodd" clip-rule="evenodd" fill="#BC7800" d="M28.846,16.542l0.611-0.906l-7.305-4.219
		c-3.463-1.998-4.779-4.268-1.627-9.385l-1.842,1.164c-1.996,3.496-1.277,6.742,2.328,8.822L28.846,16.542L28.846,16.542z"/>
	<linearGradient id="SVGID_1_" gradientUnits="userSpaceOnUse" x1="11.8555" y1="6.8691" x2="15.375" y2="28.4357">
		<stop  offset="0" style="stop-color:#C77000"/>
		<stop  offset="0.4033" style="stop-color:#CC8B00"/>
		<stop  offset="1" style="stop-color:#BA5E00"/>
	</linearGradient>
	<path fill-rule="evenodd" clip-rule="evenodd" fill="url(#SVGID_1_)" d="M14.287,8.981c-0.201-0.811-0.277-1.654-0.227-2.518
		c-3.188,5.258-3.629,10.773-1.357,16.385c0.895,2.209,2.15,4.284,3.641,6.143l0.838-1.246C12.408,21.477,11.416,15.52,14.287,8.981
		L14.287,8.981z"/>
	<path fill-rule="evenodd" clip-rule="evenodd" fill="#BC7800" d="M12.312,2.866c1.709-0.531,4.121-0.723,6.371,0.33l1.842-1.164
		c-2.162-1.012-5.5-0.66-7.168,0.258L12.312,2.866L12.312,2.866z"/>
	<path fill-rule="evenodd" clip-rule="evenodd" fill="#CC9200" d="M47.007,27.028l-9.486,19.367
		c3.033,1.373,21.006,5.656,29.096-10.863l0.502-1.023c-0.395-1.746-1.436-3.932-3.473-5.354c-2.029,3.479-5.199,4.477-8.803,2.397
		L47.007,27.028L47.007,27.028z M48.47,31.844l4.855,2.803c3.51,2.027,7,1.992,9.803,0.146c-2.959,5.39-7.516,8.529-13.51,9.367
		c-2.314,0.324-4.725,0.283-7.057-0.068c-0.029-0.004-0.057-0.008-0.084-0.012L48.47,31.844L48.47,31.844z"/>
	<linearGradient id="SVGID_2_" gradientUnits="userSpaceOnUse" x1="54.4844" y1="28.9175" x2="62.8685" y2="25.4492">
		<stop  offset="0" style="stop-color:#8A4500"/>
		<stop  offset="1" style="stop-color:#B86800"/>
	</linearGradient>
	<path fill-rule="evenodd" clip-rule="evenodd" fill="url(#SVGID_2_)" d="M47.007,27.028l0.48-0.982l7.305,4.217
		c3.463,2,6.088,2.006,8.941-3.283l-0.088,2.176c-2.029,3.479-5.199,4.477-8.803,2.397L47.007,27.028L47.007,27.028z"/>
	<linearGradient id="SVGID_3_" gradientUnits="userSpaceOnUse" x1="43.1611" y1="45.3213" x2="63.5009" y2="36.2091">
		<stop  offset="0" style="stop-color:#C75A00"/>
		<stop  offset="0.4033" style="stop-color:#BF6D00"/>
		<stop  offset="1" style="stop-color:#914900"/>
	</linearGradient>
	<path fill-rule="evenodd" clip-rule="evenodd" fill="url(#SVGID_3_)" d="M60.835,35.856c0.803-0.23,1.57-0.588,2.293-1.062
		c-2.959,5.39-7.516,8.529-13.51,9.367c-2.361,0.33-4.787,0.279-7.141-0.08l0.66-1.35C50.952,43.729,56.606,41.611,60.835,35.856
		L60.835,35.856z"/>
	<linearGradient id="SVGID_4_" gradientUnits="userSpaceOnUse" x1="3.1646" y1="54.4766" x2="26.9955" y2="68.2354">
		<stop  offset="0.0074" style="stop-color:#781916"/>
		<stop  offset="0.3086" style="stop-color:#963333"/>
		<stop  offset="1" style="stop-color:#450E0E"/>
	</linearGradient>
	<path fill-rule="evenodd" clip-rule="evenodd" fill="url(#SVGID_4_)" d="M29.139,64.521l-2.252,3.902
		c-1.125,1.947-7.371,0.445-13.951-3.354S1.932,56.613,3.057,54.666l2.252-3.902L29.139,64.521L29.139,64.521z"/>
	<linearGradient id="SVGID_5_" gradientUnits="userSpaceOnUse" x1="7.709" y1="46.6055" x2="31.5391" y2="60.3638">
		<stop  offset="0.052" style="stop-color:#ED9500"/>
		<stop  offset="0.4033" style="stop-color:#FFCC00"/>
		<stop  offset="0.9257" style="stop-color:#B36600"/>
	</linearGradient>
	<path fill-rule="evenodd" clip-rule="evenodd" fill="url(#SVGID_5_)" d="M29.139,64.521c-1.125,1.947-7.369,0.447-13.951-3.352
		c-6.58-3.801-11.002-8.459-9.879-10.406c2.076-3.596,5.559-2.539,9.801-2.279c1.91,0.115,3.775-0.289,4.836-2.127l1.271-2.199
		l2.844,1.643l2.846,1.643l-1.27,2.199c-1.062,1.838-0.479,3.656,0.578,5.252C28.559,58.439,31.215,60.926,29.139,64.521
		L29.139,64.521z"/>
	<path opacity="0.2" fill-rule="evenodd" clip-rule="evenodd" fill="#E6332A" d="M6.564,51.488c2.074-3.596,5.234-2.727,9.129-2.668
		c1.754,0.027,3.49-0.451,4.553-2.289c0.422-0.734,0.846-1.467,1.27-2.201l-0.299-0.172l-1.271,2.199
		c-1.061,1.838-2.926,2.242-4.836,2.127c-4.242-0.26-7.725-1.316-9.801,2.279c-0.326,0.566-0.184,1.363,0.344,2.301
		C5.957,52.539,6.26,52.014,6.564,51.488L6.564,51.488z"/>
	<path fill-rule="evenodd" clip-rule="evenodd" fill="#CC7200" d="M25.359,54.402c1.838,3.25,4.021,5.465,1.945,9.061
		c-0.361,0.627-0.723,1.254-1.084,1.881c1.475,0.125,2.52-0.131,2.918-0.822c2.076-3.596-0.58-6.082-2.924-9.627
		c-1.057-1.596-1.641-3.414-0.578-5.252l1.27-2.199l-0.438-0.254c-0.424,0.734-0.848,1.467-1.27,2.201
		C24.137,51.229,24.531,52.938,25.359,54.402L25.359,54.402z"/>
	<path opacity="0.15" fill-rule="evenodd" clip-rule="evenodd" fill="#FFED00" d="M25.734,62.557
		c2.076-3.596,0.297-5.578-1.107-8.578c-0.631-1.352-0.865-2.967,0.195-4.805c0.424-0.732,0.848-1.467,1.271-2.201l-0.812-0.469
		c-0.424,0.734-0.848,1.467-1.271,2.201c-1.061,1.838-1.178,3.252-0.969,4.357c0.463,2.457,1.365,3.934-0.711,7.529
		c-0.613,1.061-1.227,2.123-1.84,3.186c1.379,0.559,2.672,0.979,3.82,1.246C24.785,64.201,25.26,63.379,25.734,62.557L25.734,62.557
		z"/>
	<path opacity="0.3" fill-rule="evenodd" clip-rule="evenodd" fill="#FFED00" d="M14.842,56.268
		c2.076-3.596,3.102-3.957,4.709-5.219c0.725-0.568,1.609-1.539,2.672-3.377c0.422-0.732,0.846-1.467,1.27-2.201l-1.139-0.656
		c-0.422,0.734-0.846,1.467-1.27,2.201c-1.061,1.838-2.438,2.523-3.754,2.75c-2.924,0.502-5.18,0.154-7.256,3.75
		c-0.541,0.939-1.084,1.881-1.627,2.82c1.207,1.109,2.699,2.264,4.398,3.387C13.512,58.57,14.176,57.418,14.842,56.268
		L14.842,56.268z"/>
	<path opacity="0.28" fill-rule="evenodd" clip-rule="evenodd" fill="#FFFFFF" d="M10.594,63.625l2.252-3.902
		c-1.699-1.123-3.191-2.277-4.398-3.387l-2.254,3.902C7.402,61.346,8.895,62.502,10.594,63.625L10.594,63.625z"/>
	<path opacity="0.5" fill-rule="evenodd" clip-rule="evenodd" fill="#773403" d="M47.007,27.028l-9.486,19.367
		c0.775,0.352,2.527,0.893,4.842,1.227c2.045-0.896,4.014-2.029,5.863-3.311c-1.879,0.145-3.797,0.062-5.664-0.219
		c-0.027-0.004-0.057-0.008-0.084-0.012l5.992-12.236l4.855,2.803c1.301,0.752,2.6,1.219,3.859,1.417
		c0.197-0.238,0.389-0.472,0.576-0.708l2.402-3.023c-1.576,0.564-3.387,0.336-5.32-0.781L47.007,27.028L47.007,27.028z"/>
	<path opacity="0.1" fill-rule="evenodd" clip-rule="evenodd" fill="#FFFFFF" d="M20.49,63.777l-2.252,3.902
		c1.379,0.557,2.672,0.977,3.818,1.246l2.254-3.902C23.162,64.756,21.869,64.336,20.49,63.777L20.49,63.777z"/>
	<linearGradient id="SVGID_6_" gradientUnits="userSpaceOnUse" x1="20.5806" y1="46.4902" x2="26.8027" y2="46.4902">
		<stop  offset="0.0074" style="stop-color:#781916"/>
		<stop  offset="0.3086" style="stop-color:#963333"/>
		<stop  offset="1" style="stop-color:#450E0E"/>
	</linearGradient>
	<path opacity="0.55" fill-rule="evenodd" clip-rule="evenodd" fill="url(#SVGID_6_)" d="M25.98,49.045L25.98,49.045
		c-0.268,0.467-1.686-0.021-3.164-1.09c-1.479-1.066-2.461-2.309-2.191-2.773l0.822-1.424l5.355,3.863L25.98,49.045L25.98,49.045z"
		/>
	<path fill-rule="evenodd" clip-rule="evenodd" fill="#F9B233" d="M22.021,8.012l17.892,10.331l17.893,10.33l-3.529,4.672
		c-6.998,9.265-20.228,20.058-31.011,13.833c-10.781-6.225-8.049-23.08-3.525-33.773L22.021,8.012L22.021,8.012z"/>
	<path opacity="0.3" fill-rule="evenodd" clip-rule="evenodd" fill="#FFFFFF" d="M22.711,8.409l14.45,8.344l14.451,8.344
		l-2.961,4.135c-5.867,8.199-16.854,17.91-25.563,12.882c-8.707-5.029-6.201-19.634-2.33-28.988L22.711,8.409L22.711,8.409z"/>
	<path opacity="0.1" fill-rule="evenodd" clip-rule="evenodd" fill="#FFFFFF" d="M23.811,9.045l11.035,6.371l11.034,6.371
		l-2.469,3.516c-4.891,6.973-13.849,15.373-20.499,11.533c-6.65-3.837-4.166-15.978-0.799-23.832L23.811,9.045L23.811,9.045z"/>
	<path opacity="0.5" fill-rule="evenodd" clip-rule="evenodd" fill="#F39200" d="M23.266,47.178
		c-9.646-5.57-6.361-22.107-1.707-32.724c0.783-1.785,1.564-3.568,2.348-5.354l-1.885-1.088l-2.281,5.393
		C15.217,24.098,12.484,40.953,23.266,47.178L23.266,47.178z"/>
	<radialGradient id="SVGID_7_" cx="34.9038" cy="29.373" r="24.8358" gradientUnits="userSpaceOnUse">
		<stop  offset="1.100000e-07" style="stop-color:#FFFFFF"/>
		<stop  offset="1" style="stop-color:#E08F48"/>
	</radialGradient>
	<path opacity="0.75" fill-rule="evenodd" clip-rule="evenodd" fill="url(#SVGID_7_)" d="M51.974,32.016
		c-6.832,9.359-19.362,20.556-28.708,15.162c10.783,6.225,24.013-4.568,31.011-13.833l3.529-4.672l-2.385-1.377
		C54.271,28.868,53.122,30.442,51.974,32.016L51.974,32.016z"/>
	<path opacity="0.2" fill-rule="evenodd" clip-rule="evenodd" fill="#FFED00" d="M23.266,47.178
		c7.701,4.447,19.433-7.215,26.077-16.681c1.117-1.592,2.234-3.184,3.352-4.775l-5.113-2.951c-1.057,1.625-2.115,3.252-3.172,4.877
		C38.118,37.32,27.887,49.846,23.266,47.178L23.266,47.178z"/>
	<path opacity="0.6" fill-rule="evenodd" clip-rule="evenodd" fill="#FFFFFF" d="M23.266,47.178
		c-2.156-1.244,4.775-15.675,10.289-25.796c0.928-1.702,1.854-3.405,2.78-5.106l-7.155-4.131c-0.844,1.748-1.688,3.498-2.531,5.248
		C21.629,27.8,16.797,43.443,23.266,47.178L23.266,47.178z"/>
	<radialGradient id="SVGID_8_" cx="27.2715" cy="14.9756" r="33.7908" gradientUnits="userSpaceOnUse">
		<stop  offset="0" style="stop-color:#FFCC00"/>
		<stop  offset="1" style="stop-color:#ED9500"/>
	</radialGradient>
	<path fill-rule="evenodd" clip-rule="evenodd" fill="url(#SVGID_8_)" d="M36.651,23.995c-8.483-4.898-14.589-10.799-15.267-14.416
		c-0.357-1.9,2.035-5.6,3.082-7.414l18.591,10.732l18.59,10.735c-1.082,1.875-3.055,5.734-4.879,6.376
		C53.296,31.229,45.134,28.891,36.651,23.995L36.651,23.995z"/>
	<path opacity="0.2" fill-rule="evenodd" clip-rule="evenodd" fill="#FCEA10" d="M32.953,20.122
		c-5.434-3.762-9.311-8.125-9.701-10.672c-0.205-1.338,1.396-3.814,2.102-5.035l11.907,8.246l11.904,8.244
		c-0.727,1.262-2.059,3.867-3.252,4.238C43.646,25.848,38.386,23.884,32.953,20.122L32.953,20.122z"/>
	<radialGradient id="SVGID_9_" cx="51.2842" cy="22.6646" r="14.0595" gradientUnits="userSpaceOnUse">
		<stop  offset="1.100000e-07" style="stop-color:#FFFFFF"/>
		<stop  offset="1" style="stop-color:#FFA163"/>
	</radialGradient>
	<path opacity="0.75" fill-rule="evenodd" clip-rule="evenodd" fill="url(#SVGID_9_)" d="M61.647,23.632
		c-0.693,1.199-2.527,1.625-5.096,1.371l-1.355,2.162l-1.943,3.098c1.43,0.137,2.627,0.059,3.516-0.254
		c0.012-0.004,0.025-0.01,0.039-0.016C58.622,29.309,60.573,25.493,61.647,23.632L61.647,23.632z"/>
	<radialGradient id="SVGID_10_" cx="28.8477" cy="11.4653" r="14.364" gradientUnits="userSpaceOnUse">
		<stop  offset="1.100000e-07" style="stop-color:#FFFFFF"/>
		<stop  offset="1" style="stop-color:#FFA163"/>
	</radialGradient>
	<path opacity="0.75" fill-rule="evenodd" clip-rule="evenodd" fill="url(#SVGID_10_)" d="M24.123,9.225l1.33-2.509
		c-1.164-1.784-1.582-3.321-1.062-4.407l-0.004-0.004c-1.078,1.846-3.316,5.367-3.01,7.232c0.002,0.014,0.006,0.027,0.008,0.041
		c0.068,0.363,0.189,0.748,0.363,1.154c0.189,0.439,0.439,0.903,0.746,1.385c0.018,0.027,0.035,0.055,0.053,0.082L24.123,9.225
		L24.123,9.225z"/>
	<path opacity="0.31" fill-rule="evenodd" clip-rule="evenodd" fill="#FFFFFF" d="M47.308,22.612l-2.986,5.17l0,0
		c1.498,0.613,2.936,1.121,4.281,1.518c0.453,0.134,0.895,0.253,1.326,0.363l2.396-4.154l0.676-1.17
		c-1.715-0.443-3.602-1.084-5.594-1.902L47.308,22.612L47.308,22.612z"/>
	<path opacity="0.31" fill-rule="evenodd" clip-rule="evenodd" fill="#FFFFFF" d="M36.358,16.555
		c-2.45-1.609-4.628-3.273-6.44-4.893l-3.08,5.336c1.799,1.623,3.975,3.293,6.43,4.91L36.358,16.555L36.358,16.555z"/>
	<path opacity="0.75" fill-rule="evenodd" clip-rule="evenodd" fill="#FFFCE4" d="M46.239,7.231
		c10.16,5.867,16.881,13.252,15.008,16.494c-1.873,3.243-11.627,1.116-21.787-4.75C29.301,13.11,22.58,5.725,24.453,2.481
		C26.326-0.761,36.079,1.366,46.239,7.231L46.239,7.231z"/>
	<path fill-rule="evenodd" clip-rule="evenodd" fill="#FCEA10" d="M46.372,7.157c10.268,5.928,17.105,13.303,15.275,16.475
		c-1.83,3.17-11.637,0.935-21.904-4.993C29.477,12.711,22.637,5.334,24.467,2.165S36.104,1.229,46.372,7.157L46.372,7.157z"/>
	<radialGradient id="SVGID_11_" cx="58.4961" cy="3.7603" r="25.5234" gradientUnits="userSpaceOnUse">
		<stop  offset="0" style="stop-color:#FCF80D"/>
		<stop  offset="1" style="stop-color:#F78A0C"/>
	</radialGradient>
	<path fill-rule="evenodd" clip-rule="evenodd" fill="url(#SVGID_11_)" d="M46.132,7.573c9.635,5.563,16.111,12.385,14.465,15.236
		s-10.791,0.652-20.428-4.91c-9.634-5.562-16.11-12.385-14.464-15.236S36.495,2.011,46.132,7.573L46.132,7.573z"/>
	<path opacity="0.3" fill-rule="evenodd" clip-rule="evenodd" fill="#F9B233" d="M42.882,6.356
		c7.121,4.11,12.049,9.627,12.857,13.863c0.244,1.281,0.111,2.443-0.449,3.417c-0.045,0.08-0.094,0.156-0.143,0.23
		c2.652,0.422,4.582,0.156,5.348-0.9c0.037-0.051,0.07-0.104,0.102-0.157c1.646-2.852-4.83-9.673-14.465-15.236
		c-8.053-4.65-15.763-6.949-19.04-5.914C31.27,1.403,37.116,3.026,42.882,6.356L42.882,6.356z"/>
	<path opacity="0.2" fill-rule="evenodd" clip-rule="evenodd" fill="#E6332A" d="M48.034,21.761c0.439-2.26-1.188-5.36-4.227-8.428
		c-1.982-2.004-4.568-3.992-7.572-5.727c-3.003-1.736-6.019-2.979-8.743-3.695c-0.699-0.184-1.379-0.332-2.033-0.445
		c-0.287,3.189,5.887,9.339,14.71,14.433C42.882,19.466,45.556,20.764,48.034,21.761L48.034,21.761z"/>
	<path opacity="0.69" fill-rule="evenodd" clip-rule="evenodd" fill="#FFFFFF" d="M13.018,52c1.818,1.326,2.947,2.996,2.521,3.732
		c-0.424,0.736-2.242,0.258-4.059-1.068c-1.818-1.326-2.947-2.996-2.521-3.732C9.383,50.195,11.201,50.674,13.018,52L13.018,52z"/>
	<path opacity="0.5" fill-rule="evenodd" clip-rule="evenodd" fill="#FFED00" d="M12.703,4.309c1.082-0.953,4.291-0.447,4.588,0.68
		c0.182,0.684-0.125,1.947,0.545,3.461c-0.512-1.586-0.219-3.385,0.848-5.254c-2.25-1.053-4.662-0.861-6.371-0.33l-0.637,0.947
		C8.547,8.469,7.553,12.956,7.76,16.995C7.863,11.975,10.842,5.944,12.703,4.309L12.703,4.309z"/>
	<path opacity="0.5" fill-rule="evenodd" clip-rule="evenodd" fill="#773403" d="M15.725,25.655
		c0.027,0.463-0.109,0.953-0.734,0.436c-3.416-2.833-4.297-10.288-2.996-14.108c0.109-0.322,0.607-1.725,1.053-1.545
		c0.289,0.117,0.344,0.553,0.355,0.932c0.236-0.789,0.531-1.584,0.885-2.389c-0.201-0.811-0.277-1.654-0.227-2.518
		c-3.188,5.258-3.629,10.773-1.357,16.385l0,0c0.625,1.539,1.43,3.029,2.373,4.424c0.264,0.389,0.535,0.77,0.818,1.145
		c0.062-0.709,0.143-1.42,0.242-2.131C15.994,26.075,15.857,25.864,15.725,25.655L15.725,25.655z"/>
	<radialGradient id="SVGID_12_" cx="48.2812" cy="30.231" r="19.239" gradientUnits="userSpaceOnUse">
		<stop  offset="1.100000e-07" style="stop-color:#FFFFFF"/>
		<stop  offset="1" style="stop-color:#E08F48"/>
	</radialGradient>
	<path opacity="0.5" fill-rule="evenodd" clip-rule="evenodd" fill="url(#SVGID_12_)" d="M45.677,42.947
		c-0.416,0.209-0.771,0.57-0.01,0.854c4.16,1.543,11.057-1.424,13.713-4.457c0.227-0.258,1.191-1.391,0.812-1.688
		c-0.246-0.191-0.652-0.02-0.984,0.158c0.564-0.598,1.105-1.252,1.627-1.958c0.803-0.23,1.57-0.588,2.293-1.062
		c-2.959,5.39-7.516,8.529-13.51,9.367c-0.002,0-0.002,0-0.002,0c-1.645,0.23-3.338,0.275-5.018,0.158
		c-0.467-0.033-0.936-0.08-1.4-0.139c0.584-0.406,1.16-0.832,1.727-1.273C45.177,42.924,45.427,42.938,45.677,42.947L45.677,42.947z
		"/>
	<linearGradient id="SVGID_13_" gradientUnits="userSpaceOnUse" x1="55.4033" y1="31.7812" x2="60.1631" y2="31.7812">
		<stop  offset="1.100000e-07" style="stop-color:#E08F48"/>
		<stop  offset="1" style="stop-color:#FFFFFF"/>
	</linearGradient>
	<path fill-rule="evenodd" clip-rule="evenodd" fill="url(#SVGID_13_)" d="M57.313,31.352c-0.395-0.095-0.799-0.238-1.215-0.42
		l-0.695,0.92c1.725,0.854,3.338,0.991,4.76,0.48c-0.355,0.113-2.947,0.166-3.135-0.588C56.981,31.557,57.12,31.432,57.313,31.352
		L57.313,31.352z"/>
	<path opacity="0.5" fill-rule="evenodd" clip-rule="evenodd" fill="#773403" d="M19.947,9.78c0.281,0.293,0.607,0.572,0.971,0.84
		l-0.449,1.062c-1.6-1.066-2.525-2.395-2.795-3.882c0.08,0.365,1.33,2.636,2.078,2.421C19.936,10.168,19.977,9.987,19.947,9.78
		L19.947,9.78z"/>
</g>
</svg>
