<?xml version="1.0" encoding="utf-8"?>
<!-- Generator: Adobe Illustrator 15.1.0, SVG Export Plug-In . SVG Version: 6.00 Build 0)  -->
<!DOCTYPE svg PUBLIC "-//W3C//DTD SVG 1.1//EN" "http://www.w3.org/Graphics/SVG/1.1/DTD/svg11.dtd">
<svg version="1.1" xmlns="http://www.w3.org/2000/svg" xmlns:xlink="http://www.w3.org/1999/xlink" x="0px" y="0px" width="70px"
	 height="70px" viewBox="0 0 70 70" enable-background="new 0 0 70 70" xml:space="preserve">
<g id="Capa_1" display="none">
	<g display="inline">
		<path fill-rule="evenodd" clip-rule="evenodd" fill="#FFD400" d="M54.235,67.019c0.616,0.155,1.207,0.039,1.721-0.334
			c0.514-0.371,0.804-0.9,0.848-1.532c0.388-5.609-2.727-16.52-1.908-19.039c0.819-2.52,9.752-9.516,12.736-14.28
			c0.336-0.539,0.409-1.137,0.214-1.74c-0.196-0.604-0.608-1.044-1.196-1.28c-5.214-2.101-16.553-2.511-18.697-4.069
			C46.228,23.49,38.038,5.493,34.868,3.655c-0.547-0.318-1.178,0.255-1.586,0.742c-3.609,4.31-5.654,18.79-7.797,20.347
			c-2.145,1.558-16.511-1.036-21.726,1.065c-0.589,0.236-1,0.678-1.196,1.281c-0.508,1.562,10.894,13.178,12.122,14.4
			c1.968,1.96,3.536,3.634,3.856,4.623c0.819,2.52-2.294,13.43-1.909,19.039c0.044,0.632,0.336,1.161,0.849,1.532
			c0.514,0.373,1.106,0.489,1.72,0.334c5.454-1.365,14.868-7.698,17.519-7.698C39.368,59.32,48.781,65.653,54.235,67.019
			L54.235,67.019z"/>
		<radialGradient id="SVGID_1_" cx="21.9399" cy="14.856" r="58.3912" gradientUnits="userSpaceOnUse">
			<stop  offset="0" style="stop-color:#FCF800"/>
			<stop  offset="1" style="stop-color:#FC9700"/>
		</radialGradient>
		<path fill-rule="evenodd" clip-rule="evenodd" fill="url(#SVGID_1_)" d="M50.798,62.454c0.616,0.155,1.209,0.039,1.721-0.332
			c0.514-0.373,0.807-0.902,0.849-1.534c0.387-5.607-2.727-16.518-1.907-19.039c0.817-2.52,9.75-9.516,12.734-14.28
			c0.336-0.538,0.41-1.135,0.214-1.739s-0.606-1.044-1.194-1.281c-5.216-2.102-16.553-2.511-18.697-4.068S38.479,7.966,34.868,3.655
			c-0.404-0.486-0.952-0.74-1.586-0.74c-0.634,0-1.181,0.254-1.587,0.74c-3.611,4.311-7.503,14.968-9.647,16.525
			S8.565,22.147,3.349,24.249c-0.587,0.237-0.999,0.678-1.194,1.281c-0.198,0.604-0.123,1.201,0.214,1.739
			c2.984,4.764,11.915,11.76,12.734,14.28c0.819,2.52-2.294,13.432-1.909,19.039c0.044,0.632,0.336,1.161,0.85,1.534
			c0.512,0.371,1.104,0.487,1.721,0.332c5.452-1.364,14.867-7.698,17.516-7.698C35.931,54.756,45.345,61.09,50.798,62.454
			L50.798,62.454z"/>
		<path fill-rule="evenodd" clip-rule="evenodd" fill="#F39200" d="M62.071,27.004c-6.304,4.521-9.853,7.226-15.357,10.857
			c-0.742,0.489-1.453,1.534-1.191,2.383c1.613,5.238,6.223,13.633,6.555,18.867c0.193,3.081-2.437,2.146-3.983,1.48
			c-5.331-2.296-8.925-5.532-14.041-8.149c-1.923-0.985-3.346-0.695-5.037,0.414c-3.077,2.019-8.574,6.941-13.152,8.374
			c-1.292,0.402-2.103,0.309-2.615-0.286c0.112,0.475,0.381,0.877,0.795,1.178c0.512,0.371,1.104,0.487,1.721,0.332
			c5.452-1.364,14.867-7.698,17.516-7.698c2.649,0,12.063,6.334,17.517,7.698c0.616,0.155,1.209,0.039,1.721-0.332
			c0.514-0.373,0.807-0.902,0.849-1.534c0.387-5.607-2.727-16.518-1.907-19.039c0.817-2.52,9.75-9.516,12.734-14.28
			c0.336-0.538,0.41-1.135,0.214-1.739s-0.606-1.044-1.194-1.281c-5.216-2.102-16.553-2.511-18.697-4.068
			c-2.145-1.558-6.038-12.215-9.649-16.525c-0.404-0.486-0.952-0.741-1.586-0.741c-0.634,0-1.181,0.255-1.587,0.741
			c-0.563,0.673-1.133,1.5-1.704,2.423c1.578-1.654,3.212-2.674,4.675-0.391c2.709,4.238,3.889,8.788,5.351,13.064
			c0.917,2.68,1.461,3.774,6.727,4.141c6.029,0.417,11.043,0.825,14.633,1.431C63.354,24.657,63.402,26.05,62.071,27.004
			L62.071,27.004z"/>
		<path opacity="0.7" fill-rule="evenodd" clip-rule="evenodd" fill="#FFED00" d="M29.798,7.31
			c-1.707,3.171-3.201,6.635-4.799,9.864c-1.362,2.751-1.861,4.381-5.262,4.965c-4.207,0.722-8.498,0.842-12.712,1.522
			c-4.558,0.735-5.631,1.77-2.316,5.429c1.965,2.168,10.938,10.298,11.529,12.287c0.521,1.754-0.458,4.98-0.539,7.009
			c-0.038,0.962,0.327,2.389,1.92,0.631c12.388-13.684,15.543-16.238,33.562-22.244c1.942-0.647,3.926-1.123,5.893-1.72
			c0.548-0.167,1.284-0.709-0.331-0.926c-5.636-0.767-10.146-0.156-15.028-0.597c-2.173-0.197-3.564-2.815-4.236-4.633
			c-1.418-3.845-2.157-7.916-3.508-11.785C32.911,4.078,30.945,5.185,29.798,7.31L29.798,7.31z"/>
		<path opacity="0.73" fill-rule="evenodd" clip-rule="evenodd" fill="#FFFFFF" d="M15.385,25.134
			c-1.159-0.229-0.872-1.436,0.199-1.688c1.728-0.405,3.534-0.483,5.262-0.894c1.762-0.418,2.832-0.994,3.872-3.143
			c1.853-3.827,3.726-8.735,5.693-12.116c0.711-1.222,1.514-1.034,1.326,0.331c-0.602,4.338-1.625,8.472-2.847,12.777
			c-0.618,2.175-1.316,4.505-4.304,4.866C22.395,25.531,17.666,25.585,15.385,25.134L15.385,25.134z M11.132,23.744
			c-1.362,0.097-4.086,0.429-5.753,1.009c-1.813,0.633-1.437,1.031,0.208,1.12c1.759,0.096,3.525,0.087,5.28-0.044
			C13.339,25.646,13.004,23.61,11.132,23.744L11.132,23.744z"/>
		<path opacity="0.7" fill-rule="evenodd" clip-rule="evenodd" fill="#FFFFFF" d="M46.615,57.373
			c-0.812,0.332-2.778,0.771-0.396,2.084c1.009,0.559,2.101,0.976,3.21,1.292c2.392,0.681,2.411-1.036,2.052-2.78
			c-0.694-3.376-2.239-7.354-3.679-10.628c-0.656-1.495-1.474-2.283-1.21,0.102c0.298,2.698,0.774,5.375,1.049,8.077
			C47.766,56.749,47.725,56.919,46.615,57.373L46.615,57.373z"/>
		<path fill-rule="evenodd" clip-rule="evenodd" fill="#848484" d="M13.553,61.629c0.627,1.15,3.024,4.4,3.927,5.056
			c0.514,0.373,1.106,0.489,1.72,0.334c5.454-1.365,14.868-7.698,17.519-7.698c2.649,0,12.062,6.333,17.517,7.698
			c0.616,0.155,1.207,0.039,1.721-0.334s0.804-0.9,0.848-1.532c0.388-5.609-2.727-16.52-1.908-19.039
			c0.819-2.52,9.752-9.516,12.736-14.28c0.336-0.539,0.409-1.137,0.214-1.74c-0.348-1.072-3.068-4.611-3.888-5.341
			c0.084,0.138,0.397,0.614,0.45,0.778c0.196,0.604,0.122,1.201-0.214,1.739c-2.984,4.764-11.917,11.76-12.734,14.28
			c-0.819,2.521,2.294,13.432,1.907,19.039c-0.042,0.632-0.335,1.161-0.849,1.534c-0.512,0.371-1.104,0.487-1.721,0.332
			c-5.453-1.364-14.867-7.698-17.517-7.698c-2.649,0-12.064,6.334-17.516,7.698c-0.616,0.155-1.208,0.039-1.721-0.332
			C13.944,62.048,13.637,61.714,13.553,61.629L13.553,61.629z"/>
		<radialGradient id="SVGID_2_" cx="47.5566" cy="19.9111" r="27.1958" gradientUnits="userSpaceOnUse">
			<stop  offset="0" style="stop-color:#FCAC00"/>
			<stop  offset="1" style="stop-color:#FF7300"/>
		</radialGradient>
		<path fill-rule="evenodd" clip-rule="evenodd" fill="url(#SVGID_2_)" d="M51.46,41.549l3.439,4.552
			c0.843-2.53,9.751-9.511,12.732-14.267c0.336-0.539,0.409-1.137,0.214-1.74c-0.039-0.117-0.105-0.263-0.194-0.433
			c-0.726-1.379-2.963-4.257-3.693-4.908c0.084,0.138,0.397,0.614,0.45,0.778c0.196,0.604,0.122,1.201-0.214,1.739
			c-0.134,0.214-0.282,0.434-0.439,0.656C60.42,32.656,52.24,39.143,51.46,41.549L51.46,41.549z"/>
		<radialGradient id="SVGID_3_" cx="34.1777" cy="60.0156" r="24.9906" gradientUnits="userSpaceOnUse">
			<stop  offset="0" style="stop-color:#FC8F00"/>
			<stop  offset="1" style="stop-color:#E86900"/>
		</radialGradient>
		<path fill-rule="evenodd" clip-rule="evenodd" fill="url(#SVGID_3_)" d="M54.899,46.101l-3.439-4.552
			c-0.819,2.521,2.294,13.432,1.907,19.039c-0.042,0.632-0.335,1.161-0.849,1.534c-0.046,0.033-0.092,0.062-0.137,0.094l3.444,4.556
			c0.043-0.027,0.088-0.054,0.13-0.087c0.514-0.373,0.804-0.9,0.848-1.532c0.388-5.609-2.727-16.52-1.908-19.039
			C54.896,46.108,54.899,46.104,54.899,46.101L54.899,46.101z"/>
		<radialGradient id="SVGID_4_" cx="61.0957" cy="40.1338" r="31.236" gradientUnits="userSpaceOnUse">
			<stop  offset="0" style="stop-color:#FCAC00"/>
			<stop  offset="1" style="stop-color:#FF7300"/>
		</radialGradient>
		<path fill-rule="evenodd" clip-rule="evenodd" fill="url(#SVGID_4_)" d="M50.798,62.454c-5.453-1.364-14.867-7.698-17.517-7.698
			l3.451,4.564c2.666,0.021,12.059,6.336,17.503,7.698c0.565,0.141,1.108,0.056,1.591-0.247l-3.444-4.556
			C51.9,62.512,51.359,62.595,50.798,62.454L50.798,62.454z"/>
		<radialGradient id="SVGID_5_" cx="15.9194" cy="72.4844" r="25.0157" gradientUnits="userSpaceOnUse">
			<stop  offset="0" style="stop-color:#FC8F00"/>
			<stop  offset="1" style="stop-color:#E86900"/>
		</radialGradient>
		<path fill-rule="evenodd" clip-rule="evenodd" fill="url(#SVGID_5_)" d="M19.2,67.019c5.454-1.365,14.868-7.698,17.519-7.698
			c0.003,0,0.007,0,0.014,0l-3.451-4.564c-2.506,0-11.07,5.67-16.602,7.437c-0.316,0.1-0.622,0.189-0.914,0.262
			c-0.616,0.155-1.208,0.039-1.721-0.332c-0.101-0.074-0.408-0.408-0.492-0.493c0.576,1.058,2.646,3.884,3.679,4.846
			c0.091,0.088,0.175,0.158,0.249,0.21C17.994,67.058,18.586,67.174,19.2,67.019L19.2,67.019z"/>
		<path fill-rule="evenodd" clip-rule="evenodd" fill="#E94E1B" d="M39.165,59.2c-2.227-1.082-2.75-1.117-4.741-0.224
			c-4.452,1.999-10.143,5.939-14.348,7.001c-1.897,0.477-2.74,0.311-3.7-0.428c0.442,0.522,0.839,0.941,1.104,1.135
			c0.514,0.373,1.106,0.489,1.72,0.334c5.454-1.365,14.868-7.698,17.519-7.698c2.649,0,12.062,6.333,17.517,7.698
			c0.254,0.064,0.505,0.081,0.748,0.054c-1.327-0.218-2.611-0.873-4.125-1.617C47.054,63.586,42.686,60.911,39.165,59.2L39.165,59.2
			z"/>
		<path fill-rule="evenodd" clip-rule="evenodd" fill="#E94E1B" d="M56.219,42.575c-2.608,2.499-2.778,3.14-2.199,6.752
			c0.781,4.859,1.977,10.076,2.388,14.938c0.08,0.956,0.039,1.586-0.141,2.146c0.32-0.341,0.505-0.768,0.537-1.259
			c0.388-5.609-2.727-16.52-1.908-19.039c0.819-2.52,9.752-9.516,12.736-14.28c0.336-0.539,0.409-1.137,0.214-1.74
			c-0.175-0.536-0.939-1.687-1.765-2.795c1.072,2.303,0.841,4.892-2.351,8.194C61.338,37.965,58.705,40.196,56.219,42.575
			L56.219,42.575z"/>
		<path opacity="0.5" fill-rule="evenodd" clip-rule="evenodd" fill="#FFED00" d="M63.989,28.38
			c1.792-0.333,2.857,2.349,2.744,3.835c-0.028,0.385-0.342,1.097-0.629,1.686c0.596-0.721,1.117-1.416,1.527-2.068
			c0.336-0.539,0.409-1.137,0.214-1.74c-0.039-0.117-0.105-0.263-0.194-0.433c-0.726-1.379-2.963-4.257-3.693-4.908
			c0.084,0.138,0.397,0.614,0.45,0.778c0.196,0.604,0.122,1.201-0.214,1.739c-0.134,0.214-0.282,0.434-0.439,0.656
			c-0.186,0.268-0.391,0.539-0.606,0.816C63.426,28.576,63.678,28.438,63.989,28.38L63.989,28.38z"/>
		<path fill-rule="evenodd" clip-rule="evenodd" fill="#F9B233" d="M16.858,63.309c-0.099-0.129-0.174-0.249-0.229-0.363
			c-0.121-0.255-0.139-0.48-0.088-0.709c-0.266,0.083-0.526,0.155-0.776,0.218c-0.616,0.155-1.208,0.039-1.721-0.332
			c-0.101-0.074-0.408-0.408-0.492-0.493c0.576,1.058,2.646,3.884,3.679,4.846c0.091,0.088,0.175,0.158,0.249,0.21
			c0.514,0.373,1.106,0.489,1.72,0.334c0.506-0.127,1.048-0.297,1.614-0.5c-0.636-0.031-1.197-0.183-1.771-0.751
			C18.266,64.994,17.527,64.178,16.858,63.309L16.858,63.309z"/>
		<path fill-rule="evenodd" clip-rule="evenodd" fill="#F9B233" d="M51.105,62.962c0.723,0.745,1.304,1.615,1.913,2.458
			c0.388,0.537,0.769,1.213,0.475,1.391c0.256,0.077,0.503,0.147,0.742,0.208c0.616,0.155,1.207,0.039,1.721-0.334
			c0.368-0.268,0.624-0.616,0.753-1.024c-0.285-0.031-0.497-0.079-0.763-0.39c-0.643-0.753-1.237-1.552-1.812-2.358
			c-0.77-1.082-0.73-1.163-0.798-2.073c-0.096,0.522-0.374,0.96-0.818,1.283c-0.512,0.371-1.104,0.487-1.721,0.332
			c-0.173-0.044-0.351-0.092-0.531-0.144C50.594,62.502,50.844,62.692,51.105,62.962L51.105,62.962z"/>
	</g>
</g>
<g id="Capa_2">
	<g>
		<radialGradient id="SVGID_6_" cx="10.481" cy="31.4658" r="17.633" gradientUnits="userSpaceOnUse">
			<stop  offset="0" style="stop-color:#FCAC00"/>
			<stop  offset="1" style="stop-color:#FF7300"/>
		</radialGradient>
		<path fill-rule="evenodd" clip-rule="evenodd" fill="url(#SVGID_6_)" d="M25.756,34.937c-2.739,0.223-8.271,0.248-11.095,0.099
			c-0.312-0.017-0.575-0.163-0.751-0.424c0.346,0.638,1.752,2.571,2.471,3.295c0.176,0.254,1.972,2.406,2.281,2.422
			c1.224,0.065,2.955,0.097,4.748,0.094C24.187,38.549,24.978,36.696,25.756,34.937L25.756,34.937z"/>
		<radialGradient id="SVGID_7_" cx="45.2148" cy="6.2349" r="43.2079" gradientUnits="userSpaceOnUse">
			<stop  offset="0" style="stop-color:#FCAC00"/>
			<stop  offset="1" style="stop-color:#FF7300"/>
		</radialGradient>
		<path fill-rule="evenodd" clip-rule="evenodd" fill="url(#SVGID_7_)" d="M51.659,2.794C47.79,8.963,42.95,16.271,38.765,22.412
			c2.19-0.105,5.064-0.172,7.699-0.185c3.164-4.733,6.43-9.729,9.195-14.141c0.178-0.283,0.148-0.726,0.062-0.915
			c-0.441-0.974-3.396-4.8-4.178-5.562l0.002,0.004l0.002,0.001l0.002,0.002l0.004,0.004l0.004,0.005l0.002,0.003l0.006,0.007
			l0.002,0.001l0.002,0.003l0.006,0.008l0.002,0.001l0.002,0.003l0.004,0.004l0.002,0.004l0.002,0.001l0.002,0.003l0.002,0.004
			l0.004,0.004v0.001l0.002,0.003l0.006,0.008l0.002,0.001l0.002,0.003l0.004,0.004l0.002,0.004v0.001l0.004,0.003l0.006,0.009l0,0
			l0.002,0.004l0.004,0.004l0.002,0.004v0.001l0.004,0.003l0.002,0.005l0.002,0.004l0.002,0.001l0.002,0.003l0.006,0.009l0,0
			l0.002,0.004l0.004,0.005l0.002,0.004v0.001l0.002,0.003l0.004,0.005l0.002,0.005l0,0l0.002,0.004l0.004,0.004l0.002,0.005l0,0
			l0.002,0.006l0.004,0.003l0.002,0.005l0,0L51.681,1.8l0.002,0.005l0.004,0.004V1.81l0.002,0.004l0.002,0.005l0.002,0.004v0.001
			l0.004,0.004l0.002,0.005L51.7,1.836v0.001l0.002,0.004l0.002,0.005l0.004,0.005l0,0l0.002,0.005l0.002,0.004l0.002,0.005l0,0
			v0.002l0.006,0.013C51.858,2.184,51.837,2.51,51.659,2.794L51.659,2.794z"/>
		<radialGradient id="SVGID_8_" cx="52.373" cy="56.8916" r="81.1932" gradientUnits="userSpaceOnUse">
			<stop  offset="0" style="stop-color:#FCAC00"/>
			<stop  offset="1" style="stop-color:#FF7300"/>
		</radialGradient>
		<path fill-rule="evenodd" clip-rule="evenodd" fill="url(#SVGID_8_)" d="M52.087,23.839c-9.979,12.953-21.053,25.68-31.567,36.492
			c-1.517,1.56-4.108,3.909-4.648,3.628c-0.009-0.005-0.017-0.01-0.025-0.016l0,0c-0.015-0.012-0.029-0.024-0.042-0.04
			c0.226,0.434,3.388,4.659,3.979,5.262c0.033,0.034,0.059,0.07,0.09,0.087c0.536,0.289,3.132-2.067,4.648-3.628
			c10.514-10.812,21.588-23.538,31.566-36.492c0.227-0.294,0.197-0.8,0.102-1c-0.096-0.201-0.07-0.129-0.113-0.185
			c-0.449-0.731-3.158-4.331-3.934-5.193l0.002,0.002v0.001l0.002,0.002v0.001l0.002,0.001v0.001v0.001v0.001l0.002,0.001v0.002
			l0.002,0.001l0.002,0.004v0.001l0.002,0.002v0.001v0.001v0.001l0.002,0.001v0.001v0.001l0.006,0.011l0.002,0.001l0,0
			c0.004,0.009,0.008,0.019,0.014,0.027v0.001l0.002,0.002l0,0v0.001v0.001v0.002l0.002,0.001v0.002v0.002h0.002v0.002v0.001
			l0.002,0.002v0.001v0.001C52.347,23.173,52.313,23.545,52.087,23.839L52.087,23.839z"/>
		<path opacity="0.5" fill-rule="evenodd" clip-rule="evenodd" fill="#BE1622" d="M51.663,1.77L51.663,1.77L51.663,1.77z
			 M51.503,3.042c0.941,0.796,2.123,2.193,2.256,3.196c0.541,4.112-3.395,9.512-5.559,12.519c-1.686,2.34-2.936,3.169-4.465,3.501
			c0.912-0.016,1.834-0.026,2.729-0.03c3.164-4.733,6.43-9.729,9.195-14.141c0.178-0.283,0.148-0.726,0.062-0.915
			c-0.439-0.973-3.387-4.785-4.174-5.558l0.002,0.002l0.004,0.004l0.004,0.005l0.002,0.003l0.006,0.007l0.002,0.001l0.002,0.003
			l0.006,0.008l0.002,0.001l0.002,0.003l0.004,0.004l0.002,0.004l0.002,0.001l0.002,0.003l0.002,0.004l0.004,0.004v0.001
			l0.002,0.003l0.006,0.008l0.002,0.001l0.002,0.003l0.004,0.004l0.002,0.004v0.001l0.004,0.003l0.006,0.009l0,0l0.002,0.004
			l0.004,0.004l0.002,0.004v0.001l0.004,0.003l0.002,0.005l0.002,0.004l0.002,0.001l0.002,0.003l0.006,0.009l0,0l0.002,0.004
			l0.004,0.005l0.002,0.004v0.001l0.002,0.003l0.004,0.005l0.002,0.005l0.002,0.004l0.004,0.004l0.002,0.005l0.002,0.006
			l0.004,0.003l0.002,0.005L51.681,1.8l0.002,0.005l0.004,0.005l0.002,0.004l0.002,0.005l0.002,0.005l0.004,0.004l0.002,0.005
			L51.7,1.837l0.002,0.004l0.002,0.005l0.004,0.005l0.002,0.005l0.002,0.004l0.002,0.005v0.002l0.006,0.013
			c0.139,0.305,0.117,0.631-0.061,0.915C51.606,2.876,51.556,2.959,51.503,3.042L51.503,3.042z"/>
		<path opacity="0.5" fill-rule="evenodd" clip-rule="evenodd" fill="#BE1622" d="M56.075,27.947
			c-0.385-0.625-2.422-3.35-3.488-4.664c2.158,4.514,2.158,6.141-0.793,10.109c-3.637,4.893-7.369,9.719-11.297,14.38
			c-3.593,4.263-7.329,8.411-11.247,12.377c-1.76,1.78-3.705,3.387-5.752,4.827c-2.391,1.683-4.771,1.646-6.454,0.674
			c1.028,1.39,2.373,3.143,2.738,3.515c0.033,0.034,0.059,0.07,0.09,0.087c0.536,0.289,3.132-2.067,4.648-3.628
			c10.514-10.812,21.588-23.538,31.566-36.492c0.227-0.294,0.197-0.8,0.102-1C56.093,27.931,56.118,28.003,56.075,27.947
			L56.075,27.947z"/>
		<path opacity="0.4" fill-rule="evenodd" clip-rule="evenodd" fill="#FFED00" d="M22.681,67.394
			c-0.457,0.24-1.013,0.389-1.294,0.177c-0.511-0.388-2.438-2.929-2.779-3.477c-0.031-0.049-0.062-0.099-0.091-0.148
			c-0.299-0.491-0.174-1.178,0.058-1.75c-1.195,1.063-2.361,1.941-2.703,1.764c-0.025-0.014-0.048-0.032-0.067-0.056
			c0.226,0.434,3.388,4.659,3.979,5.262c0.033,0.034,0.059,0.07,0.09,0.087C20.221,69.442,21.449,68.499,22.681,67.394
			L22.681,67.394z M50.946,25.516c0.414-0.185,0.865-0.272,1.109-0.088c0.043,0.033,0.086,0.067,0.127,0.102
			c0.494,0.413,2.41,2.972,2.744,3.523c0.266,0.438,0.195,1.032,0.012,1.562c0.385-0.493,0.768-0.989,1.148-1.483
			c0.227-0.294,0.197-0.8,0.102-1c-0.096-0.201-0.07-0.129-0.113-0.185c-0.449-0.731-3.158-4.331-3.934-5.193
			c0.018,0.026,0.031,0.055,0.045,0.084c0.16,0.335,0.127,0.707-0.1,1.001c-0.432,0.559-0.863,1.117-1.299,1.676
			c-0.033,0.044-0.068,0.088-0.102,0.132C50.769,25.6,50.856,25.556,50.946,25.516L50.946,25.516z"/>
		<radialGradient id="SVGID_9_" cx="28.2368" cy="1.4487" r="62.8078" gradientUnits="userSpaceOnUse">
			<stop  offset="0" style="stop-color:#FCF800"/>
			<stop  offset="1" style="stop-color:#FC9700"/>
		</radialGradient>
		<path fill-rule="evenodd" clip-rule="evenodd" fill="url(#SVGID_9_)" d="M30.775,1.42c4.082-0.861,14.958-0.958,20.218-0.1
			c0.33,0.055,0.59,0.253,0.727,0.559c0.139,0.305,0.117,0.631-0.061,0.915C47.79,8.963,42.95,16.271,38.765,22.412
			c3.73-0.18,9.443-0.246,12.584-0.127c0.369,0.015,0.68,0.219,0.838,0.553c0.16,0.335,0.127,0.707-0.1,1.001
			c-9.979,12.953-21.053,25.68-31.567,36.492c-1.517,1.56-4.108,3.909-4.648,3.628c-0.55-0.287,0.272-3.105,0.611-4.503
			c1.019-4.207,5.314-15.566,9.273-24.52c-2.739,0.223-8.271,0.248-11.095,0.099c-0.312-0.017-0.575-0.163-0.751-0.424
			c-0.176-0.259-0.217-0.557-0.117-0.854c2.744-8.165,11.613-25.739,15.808-31.571C29.895,1.776,30.283,1.523,30.775,1.42
			L30.775,1.42z"/>
		<path opacity="0.3" fill-rule="evenodd" clip-rule="evenodd" fill="#BE1622" d="M50.132,16.688
			c-2.707,2.442-7.92,4.035-9.107,2.389c-0.768,1.14-1.523,2.255-2.26,3.335c2.19-0.105,5.064-0.172,7.699-0.185
			C47.683,20.404,48.917,18.541,50.132,16.688L50.132,16.688z"/>
		<path opacity="0.3" fill-rule="evenodd" clip-rule="evenodd" fill="#BE1622" d="M21.847,35.104
			c1.482,1.15-0.809,4.786-3.808,4.715c0.289,0.295,0.527,0.505,0.623,0.51c1.224,0.065,2.955,0.097,4.748,0.094
			c0.776-1.873,1.567-3.726,2.346-5.485C24.742,35.019,23.346,35.074,21.847,35.104L21.847,35.104z"/>
		<path fill-rule="evenodd" clip-rule="evenodd" fill="#FFED00" d="M31.13,5.938c4.279-0.705,10.097-0.783,14.43-0.308
			c0.619,0.067,1.268,0.269,1.746,0.668c0.961,0.8,0.305,2.566-0.529,4.11c1.711-2.62,3.371-5.204,4.883-7.614
			c0.178-0.284,0.199-0.61,0.061-0.915c-0.137-0.306-0.396-0.504-0.727-0.559c-5.26-0.858-16.136-0.762-20.218,0.1
			c-0.492,0.104-0.881,0.356-1.175,0.766c-1.999,2.779-5.059,8.224-8.012,14.047C23.654,12.73,28.021,6.45,31.13,5.938L31.13,5.938z
			"/>
		<path opacity="0.3" fill-rule="evenodd" clip-rule="evenodd" fill="#FFED00" d="M15.846,63.943
			c0.009,0.006,0.017,0.011,0.025,0.016C15.862,63.954,15.854,63.949,15.846,63.943L15.846,63.943z M51.349,22.285
			c-1.018-0.038-2.305-0.058-3.707-0.06c2.352,0.76,2.355,2.485,0.461,4.947c-5.088,6.612-18.628,23.083-25.267,27.938
			c-3.36,2.458-4.451,0.902-4.585-1.297c-0.83,2.373-1.455,4.347-1.769,5.643c-0.323,1.334-1.087,3.96-0.679,4.447
			c0.013,0.016,0.027,0.029,0.042,0.04c0.009,0.006,0.017,0.011,0.025,0.016c0.342,0.178,1.508-0.7,2.703-1.764
			c0.689-0.614,1.39-1.293,1.945-1.864c10.025-10.31,20.559-22.357,30.167-34.685c0.469-0.603,0.936-1.205,1.4-1.808
			c0.227-0.294,0.26-0.666,0.1-1.001c0,0,0,0,0-0.001v-0.001l-0.002-0.002v-0.001v-0.002h-0.002v-0.002v-0.002
			c0,0,0-0.001-0.002-0.001c0-0.001,0-0.001,0-0.002c0,0,0-0.001,0-0.002l0,0c-0.002-0.001-0.002-0.001-0.002-0.002
			c-0.004-0.01-0.01-0.019-0.014-0.028c-0.002,0-0.002-0.001-0.002-0.001l-0.006-0.011v-0.001v-0.001
			c-0.002-0.001-0.002-0.001-0.002-0.002s0-0.001,0-0.002l-0.002-0.002v-0.001l-0.002-0.004l-0.002-0.001v-0.002l-0.002-0.001
			c-0.002-0.004-0.004-0.007-0.006-0.01C51.974,22.469,51.687,22.298,51.349,22.285L51.349,22.285z"/>
		<path opacity="0.5" fill-rule="evenodd" clip-rule="evenodd" fill="#FFFFFF" d="M31.823,1.983
			c-0.518,0.106-1.069,0.289-1.438,0.667c-3.279,3.371-11.218,18.916-12.377,23.033c-0.079,0.281-0.181,0.766,0.045,0.95
			c0.32,0.262,0.812-0.419,0.979-0.682c2.93-4.619,5.537-9.438,8.425-14.083c1.446-2.326,3.158-4.992,4.828-7.163
			c1.053-1.37,3.031-1.746,4.564-2.176c2.193-0.613,1.304-1.151-0.278-1.083C35.059,1.514,33.369,1.665,31.823,1.983L31.823,1.983z"
			/>
		<path opacity="0.5" fill-rule="evenodd" clip-rule="evenodd" fill="#FFFFFF" d="M50.267,22.558
			c-3.578-0.033-7.158-0.032-10.733,0.143c-1.743,0.085-0.396,1.862,0.822,1.94c2.815,0.181,7.046-0.433,9.808-1.312
			c0.295-0.094,0.73-0.217,0.771-0.523C50.966,22.568,50.505,22.56,50.267,22.558L50.267,22.558z"/>
		<path opacity="0.05" fill-rule="evenodd" clip-rule="evenodd" fill="#FFFFFF" d="M19.673,61.174
			c-0.223,3.908,8.751-3.297,10.785-5.162c6.903-6.331,15.141-15.102,19.822-23.315c1.611-2.826,1.814-6.481-0.555-5.822
			C40.451,38.68,30.367,50.187,20.742,60.102c-0.074,0.076-0.148,0.153-0.223,0.229C20.264,60.595,19.976,60.882,19.673,61.174
			L19.673,61.174z"/>
		<path opacity="0.4" fill-rule="evenodd" clip-rule="evenodd" fill="#FFFFFF" d="M32.168,8.999
			c-0.942,0.699-1.872,1.503-2.465,2.517c-3.297,5.63-6.131,11.519-9.142,17.307c-0.627,1.205-1.327,3.495,0.925,3.697
			c2.625,0.236,5.272,0,7.908,0c-2.728,5.955-6.018,12.056-7.857,18.334c-0.567,1.938,1.015,1.978,2.26,0.821
			c5.764-5.344,15.847-16.383,19.925-23.418c1.068-1.84-0.738-2.717-2.259-2.773c-2.207-0.079-4.416,0.069-6.624,0.104
			c2.567-4.178,5.256-8.282,7.703-12.531c0.35-0.609,0.574-1.305,0.666-2.003c0.137-1.02-0.287-1.937-1.025-2.619
			c-1.136-1.048-4.272-1.091-6.836-0.592C34.009,8.102,32.827,8.51,32.168,8.999L32.168,8.999z"/>
	</g>
</g>
</svg>
