<?xml version="1.0" encoding="utf-8"?>
<!-- Generator: Adobe Illustrator 15.1.0, SVG Export Plug-In . SVG Version: 6.00 Build 0)  -->
<!DOCTYPE svg PUBLIC "-//W3C//DTD SVG 1.1//EN" "http://www.w3.org/Graphics/SVG/1.1/DTD/svg11.dtd">
<svg version="1.1" id="Capa_1" xmlns="http://www.w3.org/2000/svg" xmlns:xlink="http://www.w3.org/1999/xlink" x="0px" y="0px"
	 width="50px" height="50px" viewBox="0 0 50 50" enable-background="new 0 0 50 50" xml:space="preserve">
<g>
	<g>
		<g>
			<g>
				<path fill="#660066" d="M25,49.199c-13.557,0-24.588-10.855-24.588-24.2C0.412,11.657,11.443,0.801,25,0.801h0.051
					c0.066,0,0.133,0.001,0.201,0.002l0.178,0.003c0.077,0,0.156,0.001,0.232,0.003c0.199,0.005,0.397,0.014,0.598,0.023l0.05,0.002
					c7.229,0.36,13.901,3.825,18.304,9.511l1.011,1.306l-0.079,0.05c2.652,3.948,4.043,8.514,4.043,13.299c0,0.029,0,0.059,0,0.088
					c-0.025,6.454-2.596,12.513-7.24,17.063C37.708,46.695,31.547,49.199,25,49.199z M24.995,3.765
					c-11.917,0-21.618,9.526-21.618,21.234c0,11.71,9.701,21.236,21.623,21.236c11.879,0,21.578-9.491,21.623-21.155v-0.069
					c0-4.683-1.516-9.118-4.387-12.832l-0.748-0.97c-3.868-4.445-9.4-7.13-15.367-7.416L26.061,3.79
					c-0.156-0.007-0.313-0.014-0.473-0.017c-0.065-0.002-0.126-0.002-0.188-0.004l-0.208-0.003c-0.047,0-0.094-0.002-0.141-0.002
					l-0.033,0.001L24.995,3.765z"/>
			</g>
			<ellipse fill="#E6007E" cx="25.001" cy="24.999" rx="23.104" ry="22.718"/>
			<path opacity="0.7" fill="#FF99CC" d="M25,46.756c-12.596,0-22.831-9.913-23.092-22.236c-0.004,0.159-0.012,0.32-0.012,0.479
				C1.896,37.545,12.24,47.717,25,47.717c12.762,0,23.105-10.172,23.105-22.718c0-0.159-0.009-0.32-0.012-0.479
				C47.832,36.843,37.598,46.756,25,46.756z"/>
			<path opacity="0.55" fill="#951B81" d="M43.853,24.999c0,10.237-8.438,18.535-18.853,18.535c-10.41,0-18.85-8.298-18.85-18.535
				C6.15,14.764,14.59,6.466,25,6.466C35.414,6.466,43.853,14.764,43.853,24.999z"/>
			<path opacity="0.5" fill="#191A1A" d="M25,6.466c-5.527,0-10.502,2.341-13.949,6.067C14.416,9.46,18.924,7.58,23.878,7.58
				c10.412,0,18.851,8.298,18.851,18.534c0,4.801-1.855,9.175-4.899,12.467c3.704-3.386,6.023-8.216,6.023-13.582
				C43.853,14.764,35.414,6.466,25,6.466z"/>
		</g>
		<g opacity="0.6">
			<path fill="#FF99CC" d="M7.602,11.697c-2.031,2.835-3.557,6.294-2.571,7.364c0.983,1.069,3.169-5.12,6.317-7.649
				C14.494,8.885,10.433,7.748,7.602,11.697z"/>
			<path fill="#FF99CC" d="M17.67,4.781c-3.5,0.5-4.844,2.685-3.881,3.298c0.961,0.613,5-1.384,6.277-2.288
				C21.342,4.887,18.789,4.622,17.67,4.781z"/>
			<path fill="#FF99CC" d="M36.332,39.814c0,0-7.205,4.926-14.299,3.357c-7.092-1.57-10.131-3.814-12.116-7.055
				c-1.985-3.236,2.056,8.026,13.819,8.545C36.645,45.229,38.996,38.301,36.332,39.814z"/>
		</g>
	</g>
	<g>
		<path fill="#FFFFFF" d="M22.426,13.206c0.35,0,0.639,0.285,0.639,0.635s-0.289,0.635-0.639,0.635s-0.635-0.285-0.635-0.635
			S22.076,13.206,22.426,13.206z"/>
		<path fill="#FFFFFF" d="M22.426,15.745c0.35,0,0.639,0.283,0.639,0.637c0,0.35-0.289,0.635-0.639,0.635s-0.635-0.285-0.635-0.635
			C21.791,16.028,22.076,15.745,22.426,15.745z"/>
		<path fill="#FFFFFF" d="M22.426,18.285c0.35,0,0.639,0.285,0.639,0.635c0,0.353-0.289,0.637-0.639,0.637s-0.635-0.284-0.635-0.637
			C21.791,18.57,22.076,18.285,22.426,18.285z"/>
		<circle fill="#FFFFFF" cx="21.156" cy="15.11" r="0.508"/>
		<circle fill="#FFFFFF" cx="21.156" cy="17.651" r="0.508"/>
		<circle fill="#FFFFFF" cx="19.887" cy="13.84" r="0.381"/>
		<circle fill="#FFFFFF" cx="19.887" cy="16.379" r="0.38"/>
		<circle fill="#FFFFFF" cx="19.887" cy="18.919" r="0.381"/>
		<circle fill="#FFFFFF" cx="18.617" cy="15.11" r="0.317"/>
		<circle fill="#FFFFFF" cx="18.617" cy="17.65" r="0.317"/>
		<path fill="#FFFFFF" d="M17.348,16.126c0.139,0,0.256,0.115,0.256,0.256c0,0.14-0.117,0.251-0.256,0.251
			c-0.142,0-0.252-0.111-0.252-0.251C17.096,16.241,17.206,16.126,17.348,16.126z"/>
		<path fill="#FFFFFF" d="M26.629,32.258c-0.064,0.004-3.181,0.01-3.181,0.01v3.179c0,0.003,0,0.003,0,0.003
			c0,1.721-1.372,3.12-3.08,3.174c-0.031,0-0.065,0.002-0.097,0.002c-0.034,0-0.066-0.002-0.101-0.002
			c-1.71-0.054-3.075-1.453-3.075-3.174V29.09c0-0.081,0.03-0.445,0.042-0.521c0-0.012,0.076-0.359,0.13-0.514
			c0-0.006,0.004-0.015,0.009-0.021c0.022-0.075,0.057-0.153,0.087-0.229c0.004-0.003,0.004-0.008,0.008-0.013
			c0.104-0.233,0.235-0.452,0.389-0.651c0-0.001,0-0.001,0-0.001s0.004-0.004,0.008-0.006c0.562-0.718,1.424-1.185,2.396-1.217
			v-0.005h6.136c1.738-0.021,3.139-1.434,3.139-3.177c0-1.753-1.42-3.176-3.178-3.176c-1.342,0-2.473-0.004-2.473-0.004l0.069-0.025
			c0.272-0.069,0.477-0.317,0.477-0.611s-0.204-0.543-0.477-0.611l-0.157-0.023c-0.354,0-0.635-0.284-0.635-0.637
			c0-0.351,0.28-0.632,0.635-0.632l0.157-0.023c0.272-0.071,0.477-0.317,0.477-0.611c0-0.296-0.204-0.545-0.477-0.613l-0.157-0.023
			c-0.354,0-0.635-0.285-0.635-0.634c0-0.353,0.28-0.636,0.635-0.636l0.157-0.022c0.272-0.07,0.477-0.317,0.477-0.612
			c0-0.296-0.204-0.542-0.477-0.612l-0.069-0.022c0,0,2.466,0,2.473,0c5.266,0,9.535,4.267,9.535,9.53
			C35.795,27.877,31.722,32.066,26.629,32.258z"/>
	</g>
</g>
</svg>
