<?xml version="1.0" encoding="utf-8"?>
<!-- Generator: Adobe Illustrator 15.1.0, SVG Export Plug-In . SVG Version: 6.00 Build 0)  -->
<!DOCTYPE svg PUBLIC "-//W3C//DTD SVG 1.1//EN" "http://www.w3.org/Graphics/SVG/1.1/DTD/svg11.dtd">
<svg version="1.1" id="Capa_1" xmlns="http://www.w3.org/2000/svg" xmlns:xlink="http://www.w3.org/1999/xlink" x="0px" y="0px"
	 width="50px" height="50px" viewBox="0 0 50 50" enable-background="new 0 0 50 50" xml:space="preserve">
<path fill="#FFFFFF" d="M6.581,22.713c-0.058,0.058-0.116,0.174-0.173,0.347c-0.115,0.116-0.174,0.232-0.231,0.348
	c-0.058,0.173-0.058,0.289-0.115,0.404c-0.058,0.116-0.058,0.291-0.116,0.406c-0.116,0.52-0.116,1.099,0,1.62
	c0.059,0.116,0.059,0.231,0.116,0.406c0.058,0.116,0.058,0.23,0.115,0.405c0.058,0.174,0.116,0.289,0.231,0.404
	c0.057,0.115,0.115,0.23,0.173,0.289c0.116,0.23,0.347,0.463,0.521,0.637l12.443,12.443c1.621,1.621,4.283,1.621,5.904,0
	c1.62-1.621,1.62-4.283,0-5.902l-5.268-5.268h19.793c2.314,0,4.168-1.91,4.168-4.225c0-2.315-1.854-4.226-4.168-4.226H20.181
	l5.268-5.266c1.62-1.62,1.62-4.282,0-5.903c-0.811-0.811-1.853-1.273-3.012-1.273c-1.039,0-2.141,0.462-2.893,1.273L7.101,22.078
	C6.927,22.251,6.697,22.425,6.581,22.713L6.581,22.713z"/>
</svg>
