<?xml version="1.0" encoding="utf-8"?>
<!-- Generator: Adobe Illustrator 15.1.0, SVG Export Plug-In . SVG Version: 6.00 Build 0)  -->
<!DOCTYPE svg PUBLIC "-//W3C//DTD SVG 1.1//EN" "http://www.w3.org/Graphics/SVG/1.1/DTD/svg11.dtd">
<svg version="1.1" xmlns="http://www.w3.org/2000/svg" xmlns:xlink="http://www.w3.org/1999/xlink" x="0px" y="0px" width="50px"
	 height="50px" viewBox="0 0 50 50" enable-background="new 0 0 50 50" xml:space="preserve">
<g id="Capa_1">
</g>
<g id="Capa_2">
	<g>
		<g>
			<g>
				<g>
					<path fill="#46055E" d="M24.996,47L0.542,19.742c0,0-0.097-1.117,0-1.47c0.724-2.66,5.567-9.385,5.567-9.385l9.439-5.396
						c0,0,16.406-1.102,18.886,0c2.476,1.1,9.443,5.396,9.443,5.396s6.25,7.351,5.571,10.203
						c-0.461,1.926-24.454,27.908-24.454,27.908V47z"/>
				</g>
			</g>
			<g>
				<polygon fill="#A637C4" points="24.992,45.456 1.678,18.667 1.682,18.665 6.99,9.716 15.991,4.57 33.997,4.57 42.998,9.716 
					48.306,18.667 24.996,45.452 				"/>
			</g>
			<polygon fill="#6E0C8E" points="42.382,10.447 47.512,19.089 38.814,24.062 33.688,15.419 			"/>
			<polygon fill="#F988FF" points="2.476,19.089 3.015,19.398 6.63,21.464 11.169,24.062 16.299,15.419 11.967,12.939 8.345,10.871 
				7.606,10.447 			"/>
			<defs>
				<filter id="Adobe_OpacityMaskFilter" filterUnits="userSpaceOnUse" x="11.173" y="15.419" width="27.642" height="8.643">
					<feFlood  style="flood-color:white;flood-opacity:1" result="back"/>
					<feBlend  in="SourceGraphic" in2="back" mode="normal"/>
				</filter>
			</defs>
			<mask maskUnits="userSpaceOnUse" x="11.173" y="15.419" width="27.642" height="8.643" id="SVGID_1_">
				<g filter="url(#Adobe_OpacityMaskFilter)">
					<defs>
						<filter id="Adobe_OpacityMaskFilter_1_" filterUnits="userSpaceOnUse" x="11.173" y="15.419" width="27.642" height="8.643">
							<feFlood  style="flood-color:white;flood-opacity:1" result="back"/>
							<feBlend  in="SourceGraphic" in2="back" mode="normal"/>
						</filter>
					</defs>
					<mask maskUnits="userSpaceOnUse" x="11.173" y="15.419" width="27.642" height="8.643" id="SVGID_1_">
						<g filter="url(#Adobe_OpacityMaskFilter_1_)">
						</g>
					</mask>
					
						<linearGradient id="SVGID_2_" gradientUnits="userSpaceOnUse" x1="657.9395" y1="19.7412" x2="685.5811" y2="19.7412" gradientTransform="matrix(-1 0 0 1 696.7539 0)">
						<stop  offset="0" style="stop-color:#000000"/>
						<stop  offset="0.9091" style="stop-color:#FFFFFF"/>
					</linearGradient>
					<polygon mask="url(#SVGID_1_)" fill="url(#SVGID_2_)" points="38.814,24.062 11.173,24.062 16.299,15.419 33.688,15.419 					
						"/>
				</g>
			</mask>
			<polygon fill="#CA50D1" points="38.814,24.062 11.173,24.062 16.299,15.419 33.688,15.419 			"/>
			<defs>
				<filter id="Adobe_OpacityMaskFilter_2_" filterUnits="userSpaceOnUse" x="11.169" y="24.062" width="27.649" height="20.465">
					<feFlood  style="flood-color:white;flood-opacity:1" result="back"/>
					<feBlend  in="SourceGraphic" in2="back" mode="normal"/>
				</filter>
			</defs>
			<mask maskUnits="userSpaceOnUse" x="11.169" y="24.062" width="27.649" height="20.465" id="SVGID_3_">
				<g filter="url(#Adobe_OpacityMaskFilter_2_)">
					<defs>
						<filter id="Adobe_OpacityMaskFilter_3_" filterUnits="userSpaceOnUse" x="11.169" y="24.062" width="27.649" height="33.257">
							<feFlood  style="flood-color:white;flood-opacity:1" result="back"/>
							<feBlend  in="SourceGraphic" in2="back" mode="normal"/>
						</filter>
					</defs>
					<mask maskUnits="userSpaceOnUse" x="11.169" y="24.062" width="27.649" height="33.257" id="SVGID_3_">
						<g filter="url(#Adobe_OpacityMaskFilter_3_)">
						</g>
					</mask>
					
						<linearGradient id="SVGID_4_" gradientUnits="userSpaceOnUse" x1="657.9355" y1="40.6914" x2="685.585" y2="40.6914" gradientTransform="matrix(-1 0 0 1 696.7539 0)">
						<stop  offset="0" style="stop-color:#FFFFFF"/>
						<stop  offset="0.0939" style="stop-color:#F9F9F9"/>
						<stop  offset="0.2187" style="stop-color:#E8E8E8"/>
						<stop  offset="0.361" style="stop-color:#CDCDCD"/>
						<stop  offset="0.5161" style="stop-color:#A6A6A6"/>
						<stop  offset="0.6818" style="stop-color:#747474"/>
						<stop  offset="0.8535" style="stop-color:#393939"/>
						<stop  offset="1" style="stop-color:#000000"/>
					</linearGradient>
					<polygon mask="url(#SVGID_3_)" fill="url(#SVGID_4_)" points="11.169,24.062 14.469,31.992 24.996,57.319 38.818,24.062 					
						"/>
				</g>
			</mask>
			<g>
				<defs>
					<filter id="Adobe_OpacityMaskFilter_4_" filterUnits="userSpaceOnUse" x="11.169" y="24.062" width="27.649" height="20.465">
						<feFlood  style="flood-color:white;flood-opacity:1" result="back"/>
						<feBlend  in="SourceGraphic" in2="back" mode="normal"/>
					</filter>
				</defs>
				<mask maskUnits="userSpaceOnUse" x="11.169" y="24.062" width="27.649" height="20.465" id="SVGID_5_">
					<g filter="url(#Adobe_OpacityMaskFilter_4_)">
						<defs>
							
								<filter id="Adobe_OpacityMaskFilter_5_" filterUnits="userSpaceOnUse" x="11.169" y="24.062" width="27.649" height="20.465">
								<feFlood  style="flood-color:white;flood-opacity:1" result="back"/>
								<feBlend  in="SourceGraphic" in2="back" mode="normal"/>
							</filter>
						</defs>
						<mask maskUnits="userSpaceOnUse" x="11.169" y="24.062" width="27.649" height="20.465" id="SVGID_5_">
							<g filter="url(#Adobe_OpacityMaskFilter_5_)">
							</g>
						</mask>
						
							<linearGradient id="SVGID_6_" gradientUnits="userSpaceOnUse" x1="657.9355" y1="34.2949" x2="685.585" y2="34.2949" gradientTransform="matrix(-1 0 0 1 696.7539 0)">
							<stop  offset="0" style="stop-color:#000000"/>
							<stop  offset="0.9091" style="stop-color:#FFFFFF"/>
						</linearGradient>
						<polygon mask="url(#SVGID_5_)" fill="url(#SVGID_6_)" points="11.169,24.062 14.469,31.992 24.996,44.527 38.818,24.062 
													"/>
					</g>
				</mask>
				
					<linearGradient id="SVGID_7_" gradientUnits="userSpaceOnUse" x1="657.9355" y1="34.2949" x2="685.585" y2="34.2949" gradientTransform="matrix(-1 0 0 1 696.7539 0)">
					<stop  offset="0" style="stop-color:#FFFFFF"/>
					<stop  offset="0.9091" style="stop-color:#FFFFFF"/>
				</linearGradient>
				<polygon fill="url(#SVGID_7_)" points="11.169,24.062 14.469,31.992 24.996,44.527 38.818,24.062 				"/>
			</g>
			<polygon fill="#B51851" points="2.476,19.089 24.996,44.527 11.173,24.062 			"/>
			<polygon fill="#6E0C8E" points="47.512,19.089 38.814,24.062 24.996,44.527 			"/>
			<defs>
				<filter id="Adobe_OpacityMaskFilter_6_" filterUnits="userSpaceOnUse" x="3.612" y="19.742" width="21.384" height="24.786">
					<feFlood  style="flood-color:white;flood-opacity:1" result="back"/>
					<feBlend  in="SourceGraphic" in2="back" mode="normal"/>
				</filter>
			</defs>
			<mask maskUnits="userSpaceOnUse" x="3.612" y="19.742" width="21.384" height="24.786" id="SVGID_8_">
				<g filter="url(#Adobe_OpacityMaskFilter_6_)">
					<defs>
						<filter id="Adobe_OpacityMaskFilter_7_" filterUnits="userSpaceOnUse" x="3.612" y="19.742" width="21.384" height="24.786">
							<feFlood  style="flood-color:white;flood-opacity:1" result="back"/>
							<feBlend  in="SourceGraphic" in2="back" mode="normal"/>
						</filter>
					</defs>
					<mask maskUnits="userSpaceOnUse" x="3.612" y="19.742" width="21.384" height="24.786" id="SVGID_8_">
						<g filter="url(#Adobe_OpacityMaskFilter_7_)">
						</g>
					</mask>
					
						<linearGradient id="SVGID_9_" gradientUnits="userSpaceOnUse" x1="684.1338" y1="35.125" x2="681.0858" y2="29.7128" gradientTransform="matrix(-1 0 0 1 696.7539 0)">
						<stop  offset="0" style="stop-color:#000000"/>
						<stop  offset="0.9091" style="stop-color:#FFFFFF"/>
					</linearGradient>
					<polygon mask="url(#SVGID_8_)" fill="url(#SVGID_9_)" points="11.169,24.062 24.996,44.527 13.337,32.41 9.855,29.833 
						3.612,19.742 					"/>
				</g>
			</mask>
			<polygon fill="#D825B6" points="11.169,24.062 24.996,44.527 13.337,32.41 9.013,27.016 3.612,19.742 			"/>
			<polygon fill="#FFFFFF" points="2.476,19.089 11.169,24.062 38.814,24.062 47.512,19.089 38.814,22.895 25.693,22.895 
				11.411,23.66 3.33,17.651 			"/>
			<path fill="#FFFFFF" d="M9.859,11.963c0.174,0.079,0.568,0.18,0.976,0.331l-3.229-1.847c0,0,10.686,4.707,12.661,4.838
				c1.975,0.134,13.652,0,13.652,0s-4.569,0.157-8.927,0.394h0.549l-0.545,28.848l-0.549-28.818
				c-3.682,0.208-7.063,0.471-7.208,0.746c0,0-3.782,7.04-3.441,7.608c0.345,0.564,10.958,19.745,10.82,19.56
				c-0.137-0.191-12.542-16.154-12.924-18.304c-0.382-2.147,4.606-9.899,4.606-9.899l-4.432-2.536
				c0.226,0.243,0.308,0.548,0.1,0.933c-0.657,1.226-3.623,7.591-3.623,7.591s-3.883-0.919-3.816-1.993
				C4.592,18.34,7.758,10.985,9.859,11.963z"/>
			<defs>
				<filter id="Adobe_OpacityMaskFilter_8_" filterUnits="userSpaceOnUse" x="7.606" y="5.479" width="34.776" height="9.94">
					<feFlood  style="flood-color:white;flood-opacity:1" result="back"/>
					<feBlend  in="SourceGraphic" in2="back" mode="normal"/>
				</filter>
			</defs>
			<mask maskUnits="userSpaceOnUse" x="7.606" y="5.479" width="34.776" height="9.94" id="SVGID_10_">
				<g filter="url(#Adobe_OpacityMaskFilter_8_)">
					<defs>
						<filter id="Adobe_OpacityMaskFilter_9_" filterUnits="userSpaceOnUse" x="7.606" y="5.479" width="34.776" height="9.94">
							<feFlood  style="flood-color:white;flood-opacity:1" result="back"/>
							<feBlend  in="SourceGraphic" in2="back" mode="normal"/>
						</filter>
					</defs>
					<mask maskUnits="userSpaceOnUse" x="7.606" y="5.479" width="34.776" height="9.94" id="SVGID_10_">
						<g filter="url(#Adobe_OpacityMaskFilter_9_)">
						</g>
					</mask>
					
						<linearGradient id="SVGID_11_" gradientUnits="userSpaceOnUse" x1="654.3721" y1="10.4492" x2="689.1484" y2="10.4492" gradientTransform="matrix(-1 0 0 1 696.7539 0)">
						<stop  offset="0" style="stop-color:#000000"/>
						<stop  offset="0.9091" style="stop-color:#FFFFFF"/>
					</linearGradient>
					<polygon mask="url(#SVGID_10_)" fill="url(#SVGID_11_)" points="7.606,10.447 16.299,15.419 33.688,15.419 42.382,10.447 
						33.688,5.479 16.299,5.479 					"/>
				</g>
			</mask>
			<polygon fill="#CA50D1" points="7.606,10.447 16.299,15.419 33.688,15.419 42.382,10.447 33.688,5.479 16.299,5.479 			"/>
			<defs>
				<filter id="Adobe_OpacityMaskFilter_10_" filterUnits="userSpaceOnUse" x="13.42" y="16.453" width="24.121" height="7.609">
					<feFlood  style="flood-color:white;flood-opacity:1" result="back"/>
					<feBlend  in="SourceGraphic" in2="back" mode="normal"/>
				</filter>
			</defs>
			<mask maskUnits="userSpaceOnUse" x="13.42" y="16.453" width="24.121" height="7.609" id="SVGID_12_">
				<g filter="url(#Adobe_OpacityMaskFilter_10_)">
					<defs>
						<filter id="Adobe_OpacityMaskFilter_11_" filterUnits="userSpaceOnUse" x="13.42" y="16.453" width="24.121" height="7.609">
							<feFlood  style="flood-color:white;flood-opacity:1" result="back"/>
							<feBlend  in="SourceGraphic" in2="back" mode="normal"/>
						</filter>
					</defs>
					<mask maskUnits="userSpaceOnUse" x="13.42" y="16.453" width="24.121" height="7.609" id="SVGID_12_">
						<g filter="url(#Adobe_OpacityMaskFilter_11_)">
						</g>
					</mask>
					
						<linearGradient id="SVGID_13_" gradientUnits="userSpaceOnUse" x1="659.2129" y1="20.2578" x2="683.334" y2="20.2578" gradientTransform="matrix(-1 0 0 1 696.7539 0)">
						<stop  offset="0" style="stop-color:#000000"/>
						<stop  offset="0.9091" style="stop-color:#FFFFFF"/>
					</linearGradient>
					<path mask="url(#SVGID_12_)" fill="url(#SVGID_13_)" d="M16.299,17.804c0.898-1.808,3.571-1.306,6.206-1.229
						c2.635,0.079,6.585,0.079,6.585,0.079c1.519,0.076,1.778-0.485,3.493,0.601c1.711,1.085,2.698,2.6,3.292,3.608
						c0.594,1.005,2.546,3.199,1.206,3.199c-1.336,0-6.674-1.581-10.623-1.428c-3.953,0.153-11.232,1.514-12.661,0.461
						C12.368,22.044,15.4,19.61,16.299,17.804z"/>
				</g>
			</mask>
			
				<linearGradient id="SVGID_14_" gradientUnits="userSpaceOnUse" x1="659.2129" y1="20.2578" x2="683.334" y2="20.2578" gradientTransform="matrix(-1 0 0 1 696.7539 0)">
				<stop  offset="0" style="stop-color:#FFFFFF"/>
				<stop  offset="0.9091" style="stop-color:#FFFFFF"/>
			</linearGradient>
			<path opacity="0.5" fill="url(#SVGID_14_)" d="M13.797,23.096c-1.429-1.052,1.604-3.485,2.502-5.292
				c0.898-1.808,3.571-1.306,6.206-1.229c2.635,0.079,6.585,0.079,6.585,0.079c1.519,0.076,1.778-0.485,3.493,0.601
				c1.711,1.085,2.698,2.6,3.292,3.608c0.594,1.005,2.546,3.199,1.206,3.199c-1.336,0-6.674-1.581-10.623-1.428"/>
			<defs>
				<filter id="Adobe_OpacityMaskFilter_12_" filterUnits="userSpaceOnUse" x="25.192" y="15.422" width="13.018" height="28.632">
					<feFlood  style="flood-color:white;flood-opacity:1" result="back"/>
					<feBlend  in="SourceGraphic" in2="back" mode="normal"/>
				</filter>
			</defs>
			<mask maskUnits="userSpaceOnUse" x="25.192" y="15.422" width="13.018" height="28.632" id="SVGID_15_">
				<g filter="url(#Adobe_OpacityMaskFilter_12_)">
					<defs>
						
							<filter id="Adobe_OpacityMaskFilter_13_" filterUnits="userSpaceOnUse" x="25.192" y="15.422" width="13.018" height="28.632">
							<feFlood  style="flood-color:white;flood-opacity:1" result="back"/>
							<feBlend  in="SourceGraphic" in2="back" mode="normal"/>
						</filter>
					</defs>
					<mask maskUnits="userSpaceOnUse" x="25.192" y="15.422" width="13.018" height="28.632" id="SVGID_15_">
						<g filter="url(#Adobe_OpacityMaskFilter_13_)">
						</g>
					</mask>
					
						<linearGradient id="SVGID_16_" gradientUnits="userSpaceOnUse" x1="658.5439" y1="29.7383" x2="671.5625" y2="29.7383" gradientTransform="matrix(-1 0 0 1 696.7539 0)">
						<stop  offset="0.0909" style="stop-color:#FFFFFF"/>
						<stop  offset="1" style="stop-color:#000000"/>
					</linearGradient>
					<polygon mask="url(#SVGID_15_)" fill="url(#SVGID_16_)" points="38.21,23.66 25.192,44.055 25.192,15.68 33.429,15.422 					
						"/>
				</g>
			</mask>
			<polygon fill="#D18CD3" points="38.21,23.66 25.192,44.055 25.192,15.68 33.429,15.422 			"/>
			<g>
				<polygon fill="#FFFFFF" points="9.722,11.769 6.582,5.362 9.176,11.769 1.144,16.417 9.235,12.333 13.344,21.015 10.022,12.263 
					17.635,6.811 				"/>
				<polygon fill="#FFFFFF" points="9.369,11.741 5.353,10.464 9.117,12.036 7.235,18.545 9.369,12.265 14.74,14.075 9.707,11.805 
					11.069,5.148 				"/>
			</g>
		</g>
	</g>
</g>
</svg>
