<?xml version="1.0" encoding="utf-8"?>
<!-- Generator: Adobe Illustrator 15.1.0, SVG Export Plug-In . SVG Version: 6.00 Build 0)  -->
<!DOCTYPE svg PUBLIC "-//W3C//DTD SVG 1.1//EN" "http://www.w3.org/Graphics/SVG/1.1/DTD/svg11.dtd">
<svg version="1.1" id="Capa_1" xmlns="http://www.w3.org/2000/svg" xmlns:xlink="http://www.w3.org/1999/xlink" x="0px" y="0px"
	 width="50px" height="50px" viewBox="0 0 50 50" enable-background="new 0 0 50 50" xml:space="preserve">
<g>
	<g>
		<g>
			<g>
				<path fill="#C16E00" d="M25,49.023C11.542,49.023,0.591,38.246,0.591,25C0.591,11.753,11.542,0.977,25,0.977h0.05
					c0.066,0,0.133,0.001,0.199,0.002l0.178,0.003c0.076,0,0.154,0.001,0.23,0.003c0.197,0.005,0.395,0.013,0.594,0.022L26.3,1.01
					c7.178,0.357,13.799,3.796,18.17,9.441l1.004,1.296l-0.078,0.049c2.632,3.92,4.014,8.452,4.014,13.204
					c0,0.028,0,0.057-0.001,0.086c-0.024,6.407-2.577,12.422-7.188,16.939C37.614,46.538,31.499,49.023,25,49.023z M24.995,3.919
					C13.165,3.919,3.534,13.376,3.534,25c0,11.623,9.631,21.08,21.466,21.08c11.792,0,21.421-9.422,21.465-21.001l0.001-0.068
					c0-4.65-1.505-9.052-4.355-12.739l-0.742-0.962c-3.84-4.413-9.332-7.079-15.256-7.362l-0.06-0.003
					c-0.155-0.007-0.312-0.014-0.47-0.017c-0.064-0.002-0.125-0.002-0.188-0.003L25.19,3.921c-0.047,0-0.094-0.002-0.141-0.002
					L25.018,3.92L24.995,3.919z"/>
			</g>
			<ellipse fill="#FEB322" cx="25" cy="25" rx="22.937" ry="22.552"/>
			<path opacity="0.1" fill="#FFFFFF" d="M25,2.448C12.333,2.448,2.063,12.545,2.063,25c0,0.274,0.011,0.544,0.021,0.816
				c5.843,5.152,13.887,8.338,22.768,8.338c9.037,0,17.205-3.299,23.07-8.612c0.006-0.182,0.015-0.361,0.015-0.542
				C47.938,12.545,37.668,2.448,25,2.448z"/>
			<path fill="#F7E494" d="M25,46.598c-12.504,0-22.665-9.842-22.924-22.075C2.073,24.682,2.063,24.84,2.063,25
				c0,12.455,10.27,22.552,22.937,22.552c12.668,0,22.938-10.097,22.938-22.552c0-0.16-0.009-0.318-0.012-0.478
				C47.665,36.756,37.506,46.598,25,46.598z"/>
			<ellipse opacity="0.55" fill="#FFCE24" cx="25" cy="25" rx="18.713" ry="18.399"/>
			<path fill="#C16E00" d="M25,6.601c-5.488,0-10.425,2.323-13.848,6.023c3.34-3.051,7.815-4.917,12.733-4.917
				c10.336,0,18.714,8.238,18.714,18.399c0,4.767-1.843,9.107-4.864,12.377c3.678-3.36,5.979-8.156,5.979-13.482
				C43.714,14.838,35.337,6.601,25,6.601z"/>
		</g>
		<g>
			<path fill="#FFFFFF" d="M7.728,11.794c-2.016,2.814-3.531,6.249-2.553,7.31c0.978,1.062,3.146-5.082,6.271-7.593
				C14.57,9.001,10.538,7.873,7.728,11.794z"/>
			<path fill="#FFFFFF" d="M17.724,4.928c-3.475,0.496-4.809,2.665-3.854,3.273c0.953,0.609,4.963-1.373,6.23-2.271
				C21.368,5.033,18.833,4.77,17.724,4.928z"/>
			<path fill="#FFFFFF" d="M36.249,39.707c0,0-7.152,4.89-14.194,3.332c-7.04-1.558-10.058-3.787-12.028-7.002
				c-1.971-3.214,2.041,7.967,13.719,8.48C36.56,45.081,38.895,38.203,36.249,39.707z"/>
		</g>
	</g>
	<g>
		<path fill="#FF6424" d="M14.28,34.467v-2.154l11.299-12.596H14.828V17.35H34.63v1.902L23.001,32.1h11.684v2.367H14.28z"/>
	</g>
</g>
</svg>
