<?xml version="1.0" encoding="utf-8"?>
<!-- Generator: Adobe Illustrator 15.1.0, SVG Export Plug-In . SVG Version: 6.00 Build 0)  -->
<!DOCTYPE svg PUBLIC "-//W3C//DTD SVG 1.1//EN" "http://www.w3.org/Graphics/SVG/1.1/DTD/svg11.dtd">
<svg version="1.1" id="Capa_1" xmlns="http://www.w3.org/2000/svg" xmlns:xlink="http://www.w3.org/1999/xlink" x="0px" y="0px"
	 width="510px" height="140px" viewBox="0 0 510 140" enable-background="new 0 0 510 140" xml:space="preserve">
<g>
	<path fill="#FFFFFF" d="M67.633,80.367c3.233-7.418,6.478-14.82,9.728-22.219c-6.37,0.641-12.742,1.312-19.104,2.025
		c4.313-9.435,8.644-18.855,12.977-28.257c-0.018-7.698-0.032-15.394-0.049-23.089c-22.484,2.336-44.932,5.142-67.329,8.405
		c0.053,7.063,0.101,14.13,0.151,21.192c13.286-2.68,26.594-5.19,39.915-7.545c-4.975,10.924-9.931,21.868-14.877,32.839
		c-8.282,1.075-16.559,2.22-24.83,3.423c0.053,7.065,0.104,14.13,0.154,21.194c4.982-1.007,9.969-1.997,14.954-2.966
		c-4.985,11.119-9.96,22.256-14.914,33.418c0.109,7.058,0.221,14.109,0.332,21.172c22.19-3.239,44.433-6.018,66.709-8.334
		c-0.017-7.064-0.03-14.139-0.047-21.206c-13.017,2.089-26.021,4.347-39.012,6.753c5.523-12.225,11.063-24.429,16.62-36.6
		C55.215,80.468,61.421,80.401,67.633,80.367z"/>
	<path fill="#FFFFFF" d="M165.113,124.365c-6.244-15.906-12.511-31.778-18.798-47.612c4.117-3.373,7.878-6.654,11.279-9.847
		c0.093-21.593,0.188-43.178,0.282-64.77c-8.783,0.447-17.562,0.96-26.337,1.547c-0.045,18.303-0.089,36.611-0.132,54.918
		c-7.394,6.367-13.805,11.635-19.241,15.766c0.019-23.09,0.041-46.192,0.063-69.284C103.339,5.786,94.447,6.554,85.563,7.4
		c0.043,40.85,0.089,81.705,0.134,122.552c8.803-0.838,17.608-1.602,26.419-2.291c0.009-8.442,0.013-16.883,0.022-25.315
		c3.314-2.374,7.088-5.082,11.314-8.121c4.414,10.546,8.818,21.108,13.213,31.695C146.146,125.317,155.63,124.8,165.113,124.365
		L165.113,124.365z"/>
	<path fill="#FFFFFF" d="M220.355,102.155c-0.423,0.002-0.846,0.013-1.269,0.019c-1.452,0.077-2.807,0.12-4.076,0.144
		c-6.639,0.102-11.1-0.427-13.383-1.626c-2.525-1.37-3.764-5.209-3.719-11.546c0.218-29.522,0.437-59.042,0.655-88.561
		c-8.91,0.227-17.817,0.526-26.723,0.904c-0.17,31.574-0.341,63.145-0.51,94.721c-0.028,5.131,1.197,9.76,3.676,13.871
		c2.479,4.124,6.091,7.35,10.837,9.699c4.744,2.357,10.459,3.444,17.146,3.291c14.554-0.326,29.108-0.459,43.662-0.395
		c0.455-40.873,0.908-81.75,1.36-122.624c-8.907-0.034-17.821-0.005-26.73,0.105C220.972,34.157,220.663,68.156,220.355,102.155z"/>
	<path fill="#FFFFFF" d="M276.581,4.193c-4.811,2.41-8.512,5.716-11.117,9.896c-2.605,4.182-3.934,8.842-3.999,13.977
		c-0.146,12.352-0.297,24.705-0.447,37.055c-3.269-0.041-6.538-0.071-9.806-0.094c3.187,7.093,6.371,14.203,9.547,21.312
		c-0.146,12.154-0.294,24.306-0.441,36.455c8.858,0.117,17.718,0.301,26.573,0.559c0.18-12.92,0.363-25.842,0.546-38.76
		c0.03,0.002,0.061,0.002,0.091,0.002c7.456,0.672,14.909,1.4,22.359,2.174c-0.196,12.467-0.395,24.926-0.592,37.393
		c8.852,0.378,17.705,0.83,26.548,1.358c0.729-40.866,1.458-81.737,2.188-122.599c-14.669-0.874-29.346-1.543-44.026-2.022
		C287.192,0.678,281.386,1.791,276.581,4.193L276.581,4.193z M288.149,34.105c0.087-6.219,1.446-9.943,4.077-11.176
		c2.076-0.958,5.97-1.352,11.676-1.132c2.062,0.081,4.368,0.23,6.916,0.452c0.031,0,0.06,0.003,0.09,0.003
		c-0.231,14.747-0.466,29.493-0.7,44.239c-7.5-0.322-15.001-0.596-22.502-0.808C287.853,55.16,288,44.627,288.149,34.105z"/>
	<path fill="#FFFFFF" d="M422.211,23.982c-2.439-4.502-6.016-8.27-10.739-11.274c-4.726-3.009-10.451-4.845-17.18-5.474
		c-14.122-1.329-28.259-2.471-42.4-3.434c-0.774,40.865-1.546,81.73-2.318,122.593c14.016,0.948,28.021,2.08,42.015,3.395
		c6.662,0.627,12.393-0.053,17.193-2.064c4.801-2.014,8.514-4.973,11.137-8.916c2.621-3.936,3.998-8.464,4.125-13.594
		c0.544-22.259,1.088-44.521,1.632-66.783C425.803,33.301,424.649,28.482,422.211,23.982L422.211,23.982z M378.217,26.531
		c1.697,0.088,3.24,0.195,4.631,0.314c6.299,0.548,10.491,1.547,12.584,2.943c2.449,1.606,3.605,5.463,3.469,11.562
		c-0.416,18.449-0.832,36.888-1.245,55.336c-0.137,6.101-1.455,9.708-3.95,10.845c-2.134,0.998-6.326,1.199-12.584,0.653
		c-1.384-0.121-2.916-0.283-4.601-0.479C377.085,80.651,377.65,53.596,378.217,26.531L378.217,26.531z"/>
	<path fill="#FFFFFF" d="M506.146,21.624c-12.461-2.04-24.942-3.937-37.437-5.69c-6.697-0.936-12.471-0.447-17.31,1.445
		c-4.842,1.892-8.568,4.797-11.181,8.71c-2.612,3.911-3.986,8.437-4.115,13.564c-0.22,8.776-0.443,17.555-0.666,26.337
		c15.003,12.378,29.949,24.97,44.834,37.773c-0.014,0.512-0.03,1.025-0.044,1.535c-0.136,4.787-0.595,8.17-1.374,10.141
		c-0.778,1.972-2.157,2.998-4.146,3.076c-1.985,0.087-4.416-0.082-7.289-0.489c-1.078-0.149-2.245-0.343-3.503-0.574
		c-1.794-0.308-3.803-0.608-6.019-0.91c-0.675-7.298-1.352-14.59-2.03-21.888c-7.01-1.422-14.026-2.801-21.05-4.129
		c-0.368,14.562-0.736,29.121-1.104,43.687c12.767,1.53,25.517,3.222,38.245,5.063c6.637,0.955,12.333,0.562,17.096-1.217
		c4.758-1.78,8.459-4.564,11.094-8.37c2.637-3.808,4.036-8.275,4.191-13.396c0.237-7.72,0.472-15.435,0.708-23.151
		c-14.86-12.832-29.784-25.458-44.767-37.869c0.012-0.399,0.023-0.799,0.032-1.201c0.021-0.742,0.062-1.663,0.122-2.771
		c0.059-1.105,0.118-2.199,0.177-3.275c0.062-1.082,0.132-1.99,0.213-2.72c0.306-4.646,1.617-7.276,3.935-7.873
		c2.314-0.59,6.304-0.497,11.966,0.326c1.205,0.177,2.527,0.399,3.974,0.671c0.18,0.027,0.359,0.053,0.54,0.079
		c-0.242,8.518-0.486,17.036-0.73,25.55c7.017,1.535,14.028,3.104,21.03,4.729C503.069,53.062,504.606,37.341,506.146,21.624
		L506.146,21.624z"/>
</g>
</svg>
