<?xml version="1.0" encoding="utf-8"?>
<!-- Generator: Adobe Illustrator 15.1.0, SVG Export Plug-In . SVG Version: 6.00 Build 0)  -->
<!DOCTYPE svg PUBLIC "-//W3C//DTD SVG 1.1//EN" "http://www.w3.org/Graphics/SVG/1.1/DTD/svg11.dtd">
<svg version="1.1" id="Capa_1" xmlns="http://www.w3.org/2000/svg" xmlns:xlink="http://www.w3.org/1999/xlink" x="0px" y="0px"
	 width="50px" height="50px" viewBox="0 0 50 50" enable-background="new 0 0 50 50" xml:space="preserve">
<g>
	<g id="XMLID_3_">
		<path fill="#4386F7" d="M46.562,20.693c0,0,0.297,3.157,0.297,4.202c0,1.104-0.297,4.394-0.297,4.394
			c0,0.004-0.002,0.01-0.002,0.015c-0.695,4.931-2.638,9.372-6.184,12.564l-7.286-5.485c0.554-0.366,1.079-0.771,1.573-1.21
			c1.758-1.564,2.609-3.584,3.003-5.869H25.369v-8.61H37.64H46.562z"/>
		<path fill="#EE4131" d="M40.479,8.146l-6.482,6.381c-2.338-1.95-5.194-3.379-8.465-3.379c-6.008,0-11.116,3.858-12.983,9.234
			l-7.398-5.571C8.875,7.387,16.562,2.24,25.369,2.24c5.762,0,11.117,2.326,15.096,5.893C40.47,8.137,40.475,8.141,40.479,8.146z"/>
		<path fill="#33A951" d="M40.377,41.868c-0.023,0.021-0.048,0.044-0.072,0.065c-3.972,3.535-9.326,5.457-15.061,5.457
			c-8.811,0-16.439-5.07-20.126-12.454l7.412-5.581c1.852,5.404,6.973,9.289,13.002,9.289c2.792,0,5.391-0.832,7.56-2.262
			L40.377,41.868z"/>
		<path fill="#FFBE00" d="M12.529,29.355l-7.412,5.581C3.608,31.913,2.76,28.504,2.76,24.896c0-3.612,0.861-7.04,2.39-10.085
			l7.398,5.571c-0.491,1.414-0.758,2.933-0.758,4.514C11.79,26.457,12.05,27.957,12.529,29.355L12.529,29.355z"/>
	</g>
</g>
</svg>
