<?xml version="1.0" encoding="utf-8"?>
<!-- Generator: Adobe Illustrator 15.1.0, SVG Export Plug-In . SVG Version: 6.00 Build 0)  -->
<!DOCTYPE svg PUBLIC "-//W3C//DTD SVG 1.1//EN" "http://www.w3.org/Graphics/SVG/1.1/DTD/svg11.dtd">
<svg version="1.1" id="Capa_1" xmlns="http://www.w3.org/2000/svg" xmlns:xlink="http://www.w3.org/1999/xlink" x="0px" y="0px"
	 width="90px" height="90px" viewBox="0 0 90 90" enable-background="new 0 0 90 90" xml:space="preserve">
<g>
	<circle opacity="0.2" fill="#1D1D1B" cx="45" cy="44.793" r="45"/>
	<path fill="#FFFFFF" d="M24.581,41.639c-0.059,0.058-0.116,0.174-0.174,0.347c-0.115,0.116-0.173,0.232-0.23,0.348
		c-0.058,0.173-0.058,0.289-0.115,0.404c-0.058,0.116-0.058,0.291-0.116,0.406c-0.116,0.52-0.116,1.099,0,1.62
		c0.058,0.116,0.058,0.231,0.116,0.406c0.057,0.115,0.057,0.23,0.115,0.405c0.058,0.173,0.115,0.289,0.23,0.404
		c0.058,0.116,0.115,0.231,0.174,0.29c0.116,0.23,0.347,0.463,0.52,0.637L37.545,59.35c1.621,1.621,4.283,1.621,5.903,0
		c1.62-1.621,1.62-4.283,0-5.903l-5.267-5.267h19.793c2.314,0,4.167-1.91,4.167-4.225c0-2.315-1.853-4.226-4.167-4.226H38.182
		l5.267-5.266c1.62-1.62,1.62-4.282,0-5.903c-0.811-0.811-1.852-1.273-3.01-1.273c-1.041,0-2.141,0.462-2.893,1.273L25.101,41.003
		C24.928,41.177,24.697,41.35,24.581,41.639L24.581,41.639z"/>
</g>
</svg>
