<?xml version="1.0" encoding="utf-8"?>
<!-- Generator: Adobe Illustrator 15.1.0, SVG Export Plug-In . SVG Version: 6.00 Build 0)  -->
<!DOCTYPE svg PUBLIC "-//W3C//DTD SVG 1.1//EN" "http://www.w3.org/Graphics/SVG/1.1/DTD/svg11.dtd">
<svg version="1.1" id="Capa_1" xmlns="http://www.w3.org/2000/svg" xmlns:xlink="http://www.w3.org/1999/xlink" x="0px" y="0px"
	 width="50px" height="50px" viewBox="0 0 50 50" enable-background="new 0 0 50 50" xml:space="preserve">
<g>
	<g>
		<path fill="#9D9D9C" d="M12.171,17.174v16.107c0,0.087,0.096,0.135,0.158,0.078l8.377-7.665c0.1-0.09,0.101-0.252,0.007-0.346
			L12.333,17.1C12.27,17.039,12.171,17.086,12.171,17.174z"/>
		<path fill="#9D9D9C" d="M24.996,28.683c-0.578,0-1.124-0.223-1.532-0.625l-1.992-1.961l-0.056-0.056l-8.235,7.536
			c-0.037,0.032-0.015,0.096,0.033,0.096h11.789"/>
		<path fill="#9D9D9C" d="M25.003,16.327h-0.202H12.726c-0.047,0-0.069,0.062-0.035,0.096l8.742,8.605l0.525,0.518l1.992,1.96
			c0.072,0.071,0.149,0.134,0.233,0.187l0.089,0.047c0.057,0.031,0.111,0.062,0.17,0.086l0.114,0.033
			c0.055,0.016,0.108,0.035,0.165,0.045l0.123,0.012c0.054,0.004,0.108,0.012,0.165,0.012"/>
	</g>
	<g>
		<path fill="#9D9D9C" d="M37.828,17.174v16.107c0,0.087-0.096,0.135-0.158,0.078l-8.375-7.665c-0.102-0.09-0.102-0.252-0.008-0.346
			l8.379-8.249C37.73,17.039,37.828,17.086,37.828,17.174z"/>
		<path fill="#9D9D9C" d="M25.004,28.683c0.578,0,1.123-0.223,1.531-0.625l1.992-1.961l0.057-0.056l8.234,7.536
			c0.037,0.032,0.016,0.096-0.033,0.096H24.997"/>
		<path fill="#9D9D9C" d="M24.991,27.927c0.056,0,0.11-0.008,0.164-0.012l0.124-0.012c0.056-0.01,0.11-0.029,0.165-0.045
			l0.113-0.033c0.06-0.023,0.114-0.055,0.17-0.086l0.09-0.047c0.084-0.053,0.161-0.115,0.233-0.187l1.993-1.96l0.523-0.518
			l8.742-8.605c0.033-0.034,0.012-0.096-0.035-0.096H25.198h-0.202"/>
	</g>
</g>
</svg>
