<?xml version="1.0" encoding="utf-8"?>
<!-- Generator: Adobe Illustrator 15.1.0, SVG Export Plug-In . SVG Version: 6.00 Build 0)  -->
<!DOCTYPE svg PUBLIC "-//W3C//DTD SVG 1.1//EN" "http://www.w3.org/Graphics/SVG/1.1/DTD/svg11.dtd">
<svg version="1.1" id="Capa_1" xmlns="http://www.w3.org/2000/svg" xmlns:xlink="http://www.w3.org/1999/xlink" x="0px" y="0px"
	 width="50px" height="50px" viewBox="0 0 50 50" enable-background="new 0 0 50 50" xml:space="preserve">
<g>
	<path fill="#FFFFFF" d="M24.936,1h0.129C38.325,1,49,11.689,49,24.967c0,13.279-10.675,23.969-23.936,23.969h-0.129
		C11.676,48.937,1,38.246,1,24.967C1,11.689,11.676,1,24.936,1L24.936,1z M24.936,1"/>
	<path fill="#30529A" d="M35.173,11.187l0.017,6.249l-4.764-0.017c0,0-1.854,0.487-1.912,1.723
		c-0.057,1.236-0.088,5.593-0.088,5.593l6.666-0.033l-0.927,6.953l-5.787,0.048l0.036,17.069c0,0-1.576,0.257-3.638,0.225
		c-2.448-0.037-3.329-0.253-3.329-0.253l-0.015-17.081l-5.807-0.001l-0.003-6.907l5.807-0.004l-0.043-6.341
		C22.407,12.169,26.185,11.201,35.173,11.187L35.173,11.187z M35.173,11.187"/>
</g>
</svg>
