<?xml version="1.0" encoding="utf-8"?>
<!-- Generator: Adobe Illustrator 15.1.0, SVG Export Plug-In . SVG Version: 6.00 Build 0)  -->
<!DOCTYPE svg PUBLIC "-//W3C//DTD SVG 1.1//EN" "http://www.w3.org/Graphics/SVG/1.1/DTD/svg11.dtd">
<svg version="1.1" id="Capa_1" xmlns="http://www.w3.org/2000/svg" xmlns:xlink="http://www.w3.org/1999/xlink" x="0px" y="0px"
	 width="50px" height="50px" viewBox="0 0 50 50" enable-background="new 0 0 50 50" xml:space="preserve">
<g>
	<path fill="#9D9D9C" d="M35.244,19.493H33.26v-2.475c0-4.562-3.707-8.274-8.274-8.274c-4.562,0-8.271,3.713-8.271,8.274v2.475
		h-1.986c-1.545,0-2.816,1.271-2.816,2.816v16.104c0,1.571,1.271,2.843,2.816,2.843h20.516c1.57,0,2.844-1.271,2.844-2.843V22.31
		C38.088,20.765,36.814,19.493,35.244,19.493z M20.456,17.019c0-2.5,2.03-4.533,4.53-4.533c2.503,0,4.538,2.033,4.538,4.533v2.475
		h-9.068V17.019z M26.52,33.801v4.113c0,0.174-0.146,0.301-0.324,0.301h-1.969c-0.147,0-0.3-0.127-0.3-0.301v-4.113
		c-1.348-0.522-2.315-1.82-2.315-3.361c0-1.998,1.617-3.615,3.612-3.615c1.994,0,3.611,1.617,3.611,3.615
		C28.834,31.98,27.865,33.278,26.52,33.801z"/>
</g>
</svg>
