<?xml version="1.0" encoding="utf-8"?>
<!-- Generator: Adobe Illustrator 15.1.0, SVG Export Plug-In . SVG Version: 6.00 Build 0)  -->
<!DOCTYPE svg PUBLIC "-//W3C//DTD SVG 1.1//EN" "http://www.w3.org/Graphics/SVG/1.1/DTD/svg11.dtd">
<svg version="1.1" id="Capa_1" xmlns="http://www.w3.org/2000/svg" xmlns:xlink="http://www.w3.org/1999/xlink" x="0px" y="0px"
	 width="38px" height="38px" viewBox="0 0 38 38" enable-background="new 0 0 38 38" xml:space="preserve">
<g>
	<circle fill="#FF375F" cx="19" cy="19" r="18.758"/>
	<g>
		<path fill="#FFFFFF" d="M18.975,12.746c-0.495,0-0.854-0.09-1.074-0.269c-0.222-0.18-0.333-0.482-0.333-0.908V11.16
			c0-0.427,0.119-0.725,0.358-0.896c0.238-0.171,0.597-0.256,1.074-0.256c0.512,0,0.878,0.09,1.1,0.269s0.333,0.473,0.333,0.883
			v0.409c0,0.443-0.115,0.75-0.346,0.921C19.857,12.66,19.486,12.746,18.975,12.746z M20.279,26.687c0,0.375-0.12,0.687-0.358,0.934
			c-0.239,0.248-0.546,0.371-0.921,0.371c-0.358,0-0.661-0.123-0.908-0.371c-0.247-0.247-0.371-0.559-0.371-0.934V15.738
			c0-0.375,0.124-0.686,0.371-0.934c0.247-0.247,0.55-0.371,0.908-0.371c0.375,0,0.682,0.124,0.921,0.371
			c0.238,0.248,0.358,0.559,0.358,0.934V26.687z"/>
	</g>
</g>
</svg>
