<?xml version="1.0" encoding="utf-8"?>
<!-- Generator: Adobe Illustrator 15.1.0, SVG Export Plug-In . SVG Version: 6.00 Build 0)  -->
<!DOCTYPE svg PUBLIC "-//W3C//DTD SVG 1.1//EN" "http://www.w3.org/Graphics/SVG/1.1/DTD/svg11.dtd">
<svg version="1.1" id="Capa_1" xmlns="http://www.w3.org/2000/svg" xmlns:xlink="http://www.w3.org/1999/xlink" x="0px" y="0px"
	 width="50px" height="50px" viewBox="0 0 50 50" enable-background="new 0 0 50 50" xml:space="preserve">
<g>
	<path fill="#FFFFFF" d="M36.819,30.613c-2.284,0-4.138-1.854-4.138-4.139v-3.621c0-2.287,1.854-4.139,4.138-4.139h8.948v-7.812
		c0-1.714-1.389-3.104-3.102-3.104H3.867c-1.714,0-3.103,1.389-3.103,3.104v28.192c0,1.715,1.388,3.104,3.103,3.104h38.799
		c1.713,0,3.102-1.39,3.102-3.104v-8.482H36.819z"/>
	<path fill="#FFFFFF" d="M36.819,20.785c-1.143,0-2.068,0.924-2.068,2.068v3.621c0,1.142,0.926,2.068,2.068,2.068h12.416v-7.758
		H36.819z M39.769,26.9c-1.311,0-2.373-1.062-2.373-2.373c0-1.313,1.062-2.378,2.373-2.378c1.314,0,2.379,1.065,2.379,2.378
		C42.147,25.838,41.083,26.9,39.769,26.9z"/>
</g>
</svg>
