<?xml version="1.0" encoding="utf-8"?>
<!-- Generator: Adobe Illustrator 15.1.0, SVG Export Plug-In . SVG Version: 6.00 Build 0)  -->
<!DOCTYPE svg PUBLIC "-//W3C//DTD SVG 1.1//EN" "http://www.w3.org/Graphics/SVG/1.1/DTD/svg11.dtd">
<svg version="1.1" id="Capa_1" xmlns="http://www.w3.org/2000/svg" xmlns:xlink="http://www.w3.org/1999/xlink" x="0px" y="0px"
	 width="60px" height="60px" viewBox="0 0 60 60" enable-background="new 0 0 60 60" xml:space="preserve">
<g>
	<path fill="#FFFFFF" d="M47.812,51.688H12.188c-1.104,0-2,0.896-2,2s0.896,2,2,2h35.625c1.104,0,2-0.896,2-2
		S48.917,51.688,47.812,51.688z"/>
	<path fill="#FFFFFF" d="M47.812,9.997c-1.104,0-2,0.896-2,2v24.357L13.585,4.882c-0.79-0.771-2.057-0.757-2.828,0.033
		C9.985,5.706,10,6.972,10.79,7.743l32.112,31.36H19.59c-1.104,0-2,0.896-2,2s0.896,2,2,2h27.214c0.173,0,0.341-0.029,0.505-0.073
		c0.166,0.044,0.334,0.073,0.504,0.073c0.52,0,1.039-0.201,1.431-0.603c0.492-0.504,0.661-1.202,0.516-1.842
		c0.034-0.146,0.054-0.296,0.054-0.448V11.997C49.812,10.893,48.917,9.997,47.812,9.997z"/>
</g>
</svg>
