<?xml version="1.0" encoding="utf-8"?>
<!-- Generator: Adobe Illustrator 15.1.0, SVG Export Plug-In . SVG Version: 6.00 Build 0)  -->
<!DOCTYPE svg PUBLIC "-//W3C//DTD SVG 1.1//EN" "http://www.w3.org/Graphics/SVG/1.1/DTD/svg11.dtd">
<svg version="1.1" xmlns="http://www.w3.org/2000/svg" xmlns:xlink="http://www.w3.org/1999/xlink" x="0px" y="0px" width="60px"
	 height="60px" viewBox="0 0 60 60" enable-background="new 0 0 60 60" xml:space="preserve">
<g id="Capa_2" display="none">
	<path display="inline" fill="#FFFFFF" d="M51.396,28l-19.398,0V8.604c0-1.104-0.895-2-2-2c-1.104,0-2,0.896-2,2V28l-19.395,0
		c-1.104,0-2,0.896-2,2s0.896,2,2,2h19.395v19.397c0,1.104,0.896,2,2,2c1.105,0,2-0.896,2-2V32h19.398c1.104,0,2-0.896,2-2
		S52.5,28,51.396,28z"/>
</g>
<g id="Capa_3">
	<g>
		<path fill="#FFFFFF" d="M12.604,43.229c0.52,0,1.039-0.201,1.431-0.602l31.362-32.113v23.312c0,1.105,0.896,2,2,2s2-0.895,2-2
			V6.614c0-0.173-0.03-0.342-0.073-0.507c0.175-0.672,0.003-1.414-0.529-1.934c-0.504-0.493-1.202-0.661-1.843-0.516
			c-0.146-0.034-0.296-0.054-0.449-0.054H18.289c-1.104,0-2,0.896-2,2s0.896,2,2,2h24.358L11.173,39.832
			c-0.772,0.789-0.757,2.057,0.033,2.828C11.595,43.039,12.1,43.229,12.604,43.229z"/>
		<path fill="#FFFFFF" d="M47.812,52.396H12.188c-1.104,0-2,0.895-2,2c0,1.104,0.896,2,2,2h35.625c1.104,0,2-0.896,2-2
			C49.812,53.291,48.917,52.396,47.812,52.396z"/>
	</g>
</g>
</svg>
