<?xml version="1.0" encoding="utf-8"?>
<!-- Generator: Adobe Illustrator 15.1.0, SVG Export Plug-In . SVG Version: 6.00 Build 0)  -->
<!DOCTYPE svg PUBLIC "-//W3C//DTD SVG 1.1//EN" "http://www.w3.org/Graphics/SVG/1.1/DTD/svg11.dtd">
<svg version="1.1" id="Capa_2" xmlns="http://www.w3.org/2000/svg" xmlns:xlink="http://www.w3.org/1999/xlink" x="0px" y="0px"
	 width="60px" height="60px" viewBox="0 0 60 60" enable-background="new 0 0 60 60" xml:space="preserve">
<path fill="#FFFFFF" d="M51.396,28l-19.398,0V8.604c0-1.104-0.895-2-2-2c-1.104,0-2,0.896-2,2V28l-19.395,0c-1.104,0-2,0.896-2,2
	s0.896,2,2,2h19.395v19.397c0,1.104,0.896,2,2,2c1.105,0,2-0.896,2-2V32h19.398c1.104,0,2-0.896,2-2S52.5,28,51.396,28z"/>
</svg>
